<?xml version="1.0" standalone="no"?>
<!DOCTYPE svg PUBLIC "-//W3C//DTD SVG 1.1//EN" "http://www.w3.org/Graphics/SVG/1.1/DTD/svg11.dtd" >
<svg xmlns="http://www.w3.org/2000/svg">
<metadata></metadata>
<defs>
<font id="chatype_regularregular" horiz-adv-x="1476" >
<font-face units-per-em="2048" ascent="1597" descent="-451" />
<missing-glyph horiz-adv-x="520" />
<glyph horiz-adv-x="0" />
<glyph horiz-adv-x="682" />
<glyph horiz-adv-x="0" />
<glyph horiz-adv-x="0" />
<glyph unicode="&#xd;" horiz-adv-x="0" />
<glyph unicode=" "  horiz-adv-x="520" />
<glyph unicode="&#x09;" horiz-adv-x="520" />
<glyph unicode="&#xa0;" horiz-adv-x="520" />
<glyph unicode="!" horiz-adv-x="520" d="M162 1360q-3 55 47 55h104q46 0 43 -57l-37 -1022q0 -37 -63 -37q-36 0 -53 8.5t-17 30.5zM166 47v68q0 55 86 55q88 0 88 -55v-68q0 -34 -18.5 -48t-69.5 -15q-47 2 -66.5 15.5t-19.5 47.5z" />
<glyph unicode="&#x22;" horiz-adv-x="499" d="M41 1380v58q0 23 10.5 34t25 13t44.5 2q49 0 66.5 -8t17.5 -41v-58q0 -28 -10.5 -91.5t-20.5 -112.5l-10 -50q-3 -19 -11.5 -24.5t-27.5 -5.5q-21 0 -30.5 5.5t-12.5 24.5q-41 191 -41 254zM295 1380v58q0 23 10.5 34t25.5 13t46 2q49 0 65.5 -8t16.5 -41v-58 q0 -28 -10.5 -91.5t-20.5 -112.5l-10 -50q-3 -19 -11.5 -24.5t-27.5 -5.5q-21 0 -30.5 5.5t-12.5 24.5q-41 191 -41 254z" />
<glyph unicode="#" horiz-adv-x="1267" d="M51 471l21 123h247l56 321h-248l20 127h250l74 443h156l-72 -443h281l75 443h154l-74 -443h234l-21 -127h-235l-56 -321h236l-19 -123h-235l-82 -471h-160l84 471h-280l-82 -471h-156l80 471h-248zM477 594h281l53 321h-279z" />
<glyph unicode="$" horiz-adv-x="1099" d="M98 186v78q0 14 10.5 22.5t28.5 4.5q194 -40 352 -45q4 0 12.5 -1t12.5 -1h4v434q-142 47 -215 78q-91 35 -134.5 103.5t-43.5 195.5q0 163 97 230t296 73v115q0 7 2 12.5t7.5 8.5t9.5 5.5t13.5 3t13.5 0.5h15.5h14.5q14 0 25.5 -8.5t11.5 -21.5v-113q236 -4 323 -29 q29 -9 25 -37q-17 -229 -18 -237q0 -16 -6 -22.5t-23 -6.5h-43q-15 0 -22.5 6t-10.5 23l-31 166q-67 12 -194 16v-446q29 -10 82.5 -27t88.5 -29t62 -24q77 -33 115.5 -100t38.5 -181q0 -165 -99 -239t-288 -87v-129q-2 -14 -12 -23t-25 -9h-43q-14 0 -23.5 9.5t-9.5 22.5 v127q-202 0 -387 37q-33 11 -33 45zM270 1057q0 -48 8 -79t27.5 -52t41 -33t61.5 -27l86 -28q12 -6 24 -9v408q-139 -5 -193.5 -41t-54.5 -139zM631 242q51 2 89.5 10t73.5 27t53.5 56t18.5 91q0 48 -8.5 80t-30.5 52t-42 30t-60 24q-36 10 -94 31v-401z" />
<glyph unicode="%" horiz-adv-x="1396" d="M68 1010v229q0 35 4 60t20 52.5t44 44t78.5 27.5t121.5 11q72 0 123.5 -11.5t79 -28.5t43 -45t19 -51.5t3.5 -58.5v-227q0 -35 -4 -60t-19.5 -52.5t-43.5 -44t-79 -27.5t-122 -11q-70 0 -120.5 11t-78.5 27.5t-44 43t-20.5 51.5t-4.5 60zM223 1059q0 -81 23.5 -103 t89.5 -22q35 0 53.5 3.5t35 16t22.5 37.5t6 68v143q0 79 -26 101t-89 22q-62 0 -88.5 -22.5t-26.5 -100.5v-143zM338 55q-16 -38 20 -51l64 -6q38 -10 57 27l572 1335q14 40 -27 53l-59 2q-41 14 -56 -22zM788 186v230q0 35 4.5 60t20.5 52t44 43.5t78.5 27.5t121.5 11 q90 0 147 -15.5t82.5 -46t33 -59.5t7.5 -73v-228q0 -46 -8 -76t-34 -60t-83 -45t-145 -15q-70 0 -120 10.5t-78.5 27t-45 43.5t-21 52.5t-4.5 60.5zM944 236q0 -82 24 -104.5t89 -22.5q35 0 53.5 3.5t35 16t22.5 38.5t6 69v141q0 79 -26.5 102t-88.5 23q-61 0 -88 -23.5 t-27 -101.5v-141z" />
<glyph unicode="&#x26;" horiz-adv-x="1609" d="M86 428q15 102 102 180l287 260l-10 15q-113 140 -113 307q0 143 92.5 220t282.5 77q191 0 315 -47q11 -2 11 -19l-13 -262q-1 -18 -7.5 -23.5t-22.5 -5.5h-54q-23 0 -26 27l-27 191q-74 22 -160 22q-110 0 -162.5 -44.5t-52.5 -145.5q0 -66 21 -116t67 -108l347 -426 l178 160q97 84 178 84h76q30 0 30 -29v-67q0 -35 -32 -35h-60q-17 0 -32.5 -7.5t-25 -15.5t-36.5 -32l-186 -166l172 -211q46 -56 72 -70.5t94 -15.5l61 -2q37 0 37 -31v-63q0 -29 -39 -29h-127q-93 0 -134.5 21.5t-115.5 111.5l-145 178l-269 -237q-90 -84 -215 -84 q-135 0 -247 123q-64 70 -93.5 154t-17.5 161zM248 346q14 -70 81.5 -140.5t131.5 -70.5q56 0 123 60l256 227l-275 336l-246 -223q-46 -41 -67.5 -90.5t-3.5 -98.5z" />
<glyph unicode="'" horiz-adv-x="245" d="M41 1380v58q0 23 10.5 34t25 13t44.5 2q49 0 66.5 -8t17.5 -41v-58q0 -28 -10.5 -91.5t-20.5 -112.5l-10 -50q-3 -19 -11.5 -24.5t-27.5 -5.5q-21 0 -30.5 5.5t-12.5 24.5q-41 191 -41 254z" />
<glyph unicode="(" horiz-adv-x="667" d="M133 709q0 222 59.5 416.5t190.5 414.5q16 23 39 23h84q14 0 19.5 -9.5t0.5 -23.5q-58 -138 -85.5 -208.5t-63 -181.5t-50 -213.5t-14.5 -217.5q0 -219 54.5 -430t160.5 -390q17 -34 -18 -34h-84q-15 0 -30 12.5t-22.5 24.5t-21.5 36q-219 358 -219 781z" />
<glyph unicode=")" horiz-adv-x="667" d="M135.5 -135.5q-5.5 9.5 3.5 24.5q106 179 160.5 390t54.5 430q0 115 -14.5 217.5t-50 213.5t-63 181.5t-85.5 208.5q-5 14 0.5 23.5t20.5 9.5h84q9 0 17 -4.5t16.5 -14.5t13 -17t13.5 -22t11 -18q218 -358 218 -778q0 -227 -62 -430t-190 -404q-14 -20 -41 -20h-84 q-17 0 -22.5 9.5z" />
<glyph unicode="*" horiz-adv-x="811" d="M70 967q-15 30 24 41l221 96l-194 82q-34 16 -45.5 29t0.5 34l33 60q14 20 36 12q15 -5 33 -14l189 -127q-2 25 -8.5 79t-10 95.5t-4.5 79.5q0 30 31 30h78q30 0 30 -30l-24 -254l190 127q8 5 31 14q24 7 37 -14l35 -64q8 -17 -4 -30.5t-41 -26.5l-195 -84 q179 -69 222 -102q22 -18 20 -31q0 -4 -2 -8l-37 -64h2q-9 -19 -35 -10q-13 5 -31 16l-192 123q1 -16 24 -250q0 -15 -7 -25t-19 -10h-64q-16 0 -25.5 1.5t-17 10t-4.5 23.5l21 250l-189 -125q-18 -11 -31 -16q-24 -12 -36 8h2z" />
<glyph unicode="+" horiz-adv-x="964" d="M106 565v53q0 14 9 22.5t22 8.5h295v332q0 13 9 22t22 9h63q14 0 22.5 -9t8.5 -22v-332h295q14 0 22.5 -8.5t8.5 -22.5v-53q0 -13 -8.5 -21.5t-22.5 -8.5h-295v-320q0 -13 -8.5 -22t-22.5 -9h-63q-13 0 -22 9t-9 22v320h-295q-14 0 -22.5 8.5t-8.5 21.5z" />
<glyph unicode="," horiz-adv-x="311" d="M61 -92q37 70 37 137v70q0 32 17.5 44.5t60.5 12.5q42 0 63 -12t21 -43v-51q0 -51 -29 -98t-81 -79q-22 -14 -46 -14h-32q-28 0 -11 33z" />
<glyph unicode="-" horiz-adv-x="618" d="M117 561v84q0 15 6.5 20t21.5 5h365q31 0 31 -23v-84q0 -14 -7.5 -19t-23.5 -5h-365q-16 0 -22 4.5t-6 17.5z" />
<glyph unicode="." horiz-adv-x="344" d="M84 47v68q0 55 86 55q88 0 88 -55v-68q0 -34 -18.5 -48t-69.5 -15q-47 2 -66.5 15.5t-19.5 47.5z" />
<glyph unicode="/" horiz-adv-x="784" d="M16 53l588 1389q9 20 18.5 26.5t28.5 6.5h80q43 0 21 -52l-588 -1390q-9 -20 -18.5 -25.5t-30.5 -5.5h-78q-43 0 -21 51z" />
<glyph unicode="0" horiz-adv-x="1355" d="M174 459v534q0 63 4 111t17 101.5t35 93t60 76.5t90.5 60.5t127.5 37.5t170 14t170 -14t127.5 -37.5t91 -60.5t60.5 -76.5t35.5 -92.5t17.5 -102t4 -111v-534q0 -62 -4 -109.5t-17.5 -99.5t-35.5 -90t-60.5 -73.5t-91 -58t-127.5 -35.5t-170 -13t-170 13t-127.5 35.5 t-90.5 58t-60 73.5t-35 90t-17 99.5t-4 109.5zM348 463q0 -52 2 -87t9 -76t20.5 -67.5t38 -53t59 -41.5t85 -24.5t116.5 -9.5q52 0 94 6t74 15t56.5 26t41.5 34t29 43t19 49t10.5 57.5t4.5 62.5t1 68v530q0 40 -1 68.5t-4.5 63t-10.5 58.5t-19 50.5t-29 44.5t-41.5 35 t-56.5 27t-74.5 16t-93.5 6q-65 0 -116 -10t-85.5 -25.5t-59 -43.5t-38 -55.5t-20.5 -69.5t-9 -77.5t-2 -87.5v-532z" />
<glyph unicode="1" horiz-adv-x="774" d="M147 1341v58q0 18 21 24l289 60q37 8 37 -23v-1280q0 -34 10.5 -46t48.5 -15l88 -8q18 -2 18 -25v-66q0 -20 -20 -20h-459q-20 0 -20 20v66q0 22 18 25l90 8q39 3 49.5 14.5t10.5 42.5v1104q0 26 -9.5 37t-37.5 10l-105 -8q-29 -4 -29 22z" />
<glyph unicode="2" horiz-adv-x="1144" d="M106 41v39q0 28 25 53l531 561q186 198 186 398q0 71 -15.5 121t-38.5 77.5t-64 42.5t-79 19t-96 4q-133 0 -281 -19l-32 -174q-5 -30 -35 -30h-49q-14 0 -21 6t-8 24l-16 254q-1 20 5 27t23 10q208 33 426 33q60 0 105.5 -3t95 -12.5t84.5 -26t68 -45t53.5 -68t32.5 -96 t12 -128.5q0 -54 -8.5 -104t-32.5 -116.5t-76.5 -142t-130.5 -155.5l-444 -453h702q27 0 27 -33v-71q0 -33 -27 -33h-891q-31 0 -31 41z" />
<glyph unicode="3" horiz-adv-x="1165" d="M102 59v64q0 22 10 29t35 2q211 -41 375 -41q110 0 184 21t113 62.5t54.5 92.5t15.5 123q0 58 -10.5 101t-24.5 72.5t-49 49.5t-61.5 31t-86 17t-98.5 7.5t-121 3.5q-28 0 -40.5 7t-12.5 30v57q0 21 11.5 28t39.5 7h125q80 0 138 19.5t87 45t45.5 65t19.5 66t3 60.5 q0 155 -65.5 217t-225.5 62q-141 0 -268 -25l-23 -184q-6 -33 -32 -33h-58q-16 0 -22.5 6.5t-7.5 26.5l-15 250q-2 19 17 31q41 26 171.5 41.5t243.5 15.5q223 0 335 -87.5t112 -252.5v-78q0 -234 -209 -303q122 -18 185 -107.5t63 -214.5v-98q0 -96 -39 -167.5t-110.5 -114 t-162.5 -62.5t-204 -20q-79 0 -177.5 9t-157.5 18l-59 9q-27 6 -35 13.5t-8 27.5z" />
<glyph unicode="4" horiz-adv-x="1187" d="M49 338v86q0 14 27 55l653 953q20 32 55 32h111q19 0 24.5 -12t-6.5 -29l-692 -985h527v406q0 27 9 36t36 9h67q29 0 38 -10t9 -35v-404h103q16 0 24 -1.5t14.5 -9t6.5 -23.5v-68q0 -24 -10 -29.5t-35 -5.5h-103v-108q0 -46 8.5 -62.5t42.5 -17.5l66 -6q20 -3 20 -27v-59 q0 -23 -22 -23h-391q-23 0 -23 23v61q0 13 4 18t15 7l65 6q34 0 43.5 26t9.5 101v61h-653q-43 0 -43 35z" />
<glyph unicode="5" horiz-adv-x="1265" d="M176 76l14 233q0 33 33 33h47q30 0 39 -33l21 -174q27 -12 105 -20.5t145 -8.5q58 0 105.5 6t83.5 15.5t63.5 26.5t46 33t31.5 41.5t20 46.5t10.5 53t4.5 55t1 59q0 44 -1 71.5t-5.5 62t-13.5 55.5t-24.5 45t-39 37.5t-56.5 26t-78.5 17.5t-102.5 5h-357q-59 0 -59 63 l59 592q4 32 20 45t44 13h690q35 -2 35 -43l-10 -275q0 -33 -29 -33h-55q-32 0 -35 33l-27 184h-452q-18 0 -24.5 -6t-6.5 -26l-45 -414h270q111 0 191.5 -17t134 -49.5t85.5 -84.5t45 -116t13 -151v-61q0 -76 -10 -133.5t-42.5 -117t-88.5 -98t-153 -63t-230 -24.5 q-95 0 -190 10t-144 19.5t-61 15.5q-20 10 -17 51z" />
<glyph unicode="6" horiz-adv-x="1296" d="M174 403v416q0 359 129.5 513.5t423.5 154.5q116 0 219.5 -15t130.5 -28q15 -8 15 -27l-15 -256q0 -31 -26 -31h-66q-14 0 -19.5 7.5t-7.5 23.5l-20 180q-88 21 -205 21q-114 0 -190.5 -30.5t-121.5 -97.5t-64 -161t-19 -231v-49q25 55 115 90t186 35h72q206 0 319 -101 t113 -291v-159q0 -104 -35.5 -181.5t-99 -122t-142.5 -65.5t-176 -21h-67q-211 0 -330 104.5t-119 321.5zM338 381q0 -277 330 -277q311 0 311 267v143q0 134 -72.5 205.5t-234.5 71.5q-155 0 -244.5 -67t-89.5 -212v-131z" />
<glyph unicode="7" horiz-adv-x="1058" d="M84 1438q-4 37 27 37h858q25 0 33.5 -21t-1.5 -47l-507 -1362q-10 -25 -22 -35t-38 -10h-88q-51 0 -29 59l496 1291l-575 -11l-25 -200q-3 -29 -25 -29h-59q-15 0 -21.5 5t-7.5 24z" />
<glyph unicode="8" horiz-adv-x="1310" d="M143 395v58q0 81 23 148.5t82 122.5t149 75q-94 33 -143 112.5t-49 188.5v41q0 58 10.5 105t40.5 93.5t78.5 77.5t130 50.5t190.5 19.5q110 0 192 -19t131.5 -49.5t79 -77t40 -94.5t10.5 -108v-41q0 -244 -203 -301q262 -47 262 -334v-68q0 -77 -12 -135.5t-45.5 -113 t-89.5 -89t-148 -55t-217 -20.5q-122 0 -213.5 20.5t-148 55.5t-90.5 89t-47 113t-13 135zM315 397q0 -77 15.5 -130t53 -92t104.5 -57t167 -18q102 0 169.5 18.5t105 58.5t52.5 92.5t15 129.5v41q0 71 -16.5 122.5t-54.5 90.5t-105 58.5t-164 19.5q-99 0 -166.5 -19 t-105.5 -58t-54 -91t-16 -125v-41zM375 1085q0 -57 9.5 -95t37.5 -73t85.5 -52t145.5 -17q91 0 150 17t87.5 52t38 73t9.5 95v48q0 46 -5 78.5t-22 65t-47 52.5t-82.5 32.5t-126.5 12.5q-89 0 -145 -14.5t-85.5 -47.5t-39.5 -74t-10 -105v-48z" />
<glyph unicode="9" horiz-adv-x="1277" d="M154 932v129q0 217 116 321.5t310 104.5h94q205 0 318.5 -109t113.5 -340v-489q0 -149 -45 -260t-126.5 -177t-186 -98t-232.5 -32q-70 0 -147 7.5t-119 14.5l-41 8q-22 5 -30.5 13.5t-8.5 29.5v54q0 26 10.5 32t30.5 0q138 -30 283 -30q231 0 338.5 110.5t107.5 343.5 v107q-39 -79 -108.5 -115.5t-186.5 -36.5h-70q-89 0 -162 22t-133 68.5t-93 128.5t-33 193zM317 948q0 -153 74 -224t246 -71q158 0 230.5 67.5t72.5 235.5v101q0 166 -82.5 233.5t-230.5 67.5q-153 0 -231.5 -70t-78.5 -233v-107z" />
<glyph unicode=":" horiz-adv-x="344" d="M84 47v68q0 55 86 55q88 0 88 -55v-68q0 -34 -18.5 -48t-69.5 -15q-47 2 -66.5 15.5t-19.5 47.5zM84 922v67q0 55 86 55q88 0 88 -55v-67q0 -34 -19 -48.5t-69 -15.5q-47 2 -66.5 16t-19.5 48z" />
<glyph unicode=";" horiz-adv-x="417" d="M92 -92q-17 -33 10 -33h33q23 0 45 14q52 32 81.5 79t29.5 98v51q0 31 -21 43t-63 12q-43 0 -60.5 -12.5t-17.5 -44.5v-70q0 -67 -37 -137zM115 901v68q0 55 86 55q88 0 88 -55v-68q0 -34 -18.5 -48t-69.5 -15q-47 2 -66.5 15.5t-19.5 47.5z" />
<glyph unicode="&#x3c;" horiz-adv-x="989" d="M94 494v92q0 14 17 24l817 400q20 12 36.5 8t16.5 -25v-71q0 -21 -16 -31l-732 -352l732 -351q16 -6 16 -30v-70q0 -21 -16.5 -25t-36.5 7l-817 399q-17 10 -17 25z" />
<glyph unicode="=" horiz-adv-x="911" d="M100 399v58q0 13 8.5 21.5t22.5 8.5h655q14 0 22.5 -8.5t8.5 -21.5v-58q0 -13 -8.5 -21.5t-22.5 -8.5h-655q-14 0 -22.5 8.5t-8.5 21.5zM100 635v59q0 14 9 22.5t22 8.5h655q14 0 22.5 -8.5t8.5 -22.5v-59q0 -13 -8.5 -22t-22.5 -9h-655q-13 0 -22 9t-9 22z" />
<glyph unicode="&#x3e;" horiz-adv-x="989" d="M94 88v70q0 23 17 30l731 351l-731 352q-17 10 -17 31v71q0 21 16.5 25t36.5 -8l818 -400q16 -10 16 -24v-92q0 -15 -16 -25l-818 -399q-20 -11 -36.5 -7t-16.5 25z" />
<glyph unicode="?" horiz-adv-x="903" d="M49 1391q0 10 21 16q119 25 344 25q211 0 311 -65.5t100 -225.5v-37q0 -44 -8 -81.5t-26.5 -70t-37 -57.5t-53 -55t-61 -50.5t-73 -55.5t-77.5 -60q-49 -43 -49 -88q0 -29 23 -70q14 -23 26 -37l52 -65q22 -28 -4 -54l-41 -36q-30 -20 -54 4l-69 80q-93 93 -99 174 q-3 49 25 95t72 80.5t96.5 75.5t97.5 80t75 94t30 117q0 98 -56 144.5t-180 46.5q-92 0 -227 -15l-31 -170q-5 -16 -11.5 -19t-21.5 -3h-47q-11 0 -15 0.5t-9 5.5t-6 16zM332 47v68q0 55 86 55q88 0 88 -55v-68q0 -34 -18.5 -48t-69.5 -15q-49 1 -67.5 15t-18.5 48z" />
<glyph unicode="@" horiz-adv-x="1630" d="M90 342v487q0 298 185 435t542 137q376 0 554.5 -134.5t178.5 -412.5v-479q0 -140 -71 -198t-211 -58q-138 0 -214.5 50t-76.5 173v479q0 37 -39 56.5t-133 19.5q-35 0 -61.5 -6t-44 -13.5t-29.5 -24t-18 -29t-9 -38.5t-3.5 -41t-0.5 -47v-6.5v-5.5v-272 q0 -104 39.5 -137t120.5 -33q30 0 59.5 3t48 6t21.5 3q13 1 18.5 -6.5t5.5 -20.5v-65q0 -25 -28 -31q-47 -14 -152 -14q-151 0 -220 61.5t-69 227.5v294q0 74 15.5 129.5t50.5 100.5t99 68.5t155 23.5q152 0 242 -40t90 -128v-496q0 -70 33 -96t104 -26q46 0 73 7.5t40.5 27 t17.5 43t4 67.5v463q0 78 -14 138.5t-53 117t-103 93t-169 58t-247 21.5q-167 0 -280 -28.5t-178 -88t-92 -139.5t-27 -193v-485q0 -115 34.5 -201.5t92.5 -139.5t145.5 -85.5t181 -44.5t211.5 -12q236 0 500 61q31 5 31 -24v-62q0 -33 -31 -45q-52 -20 -208.5 -38.5 t-321.5 -18.5q-144 0 -262.5 20.5t-217.5 66.5t-166.5 116.5t-105 174t-37.5 234.5z" />
<glyph unicode="A" d="M18 20v64q0 22 17 25l71 6q35 3 52 20.5t32 57.5l463 1251q7 17 13 24t20 7h105q16 0 21.5 -6t8.5 -21l467 -1251q15 -40 31 -58.5t45 -21.5l66 -6q18 -3 18 -23v-68q0 -20 -18 -20h-414q-14 0 -18.5 3.5t-4.5 16.5v66q0 22 17 25l88 6q24 2 24 26q0 12 -6 29l-88 244 h-612l-88 -246q-6 -16 -6 -27q0 -28 34 -30l70 -4q23 -3 23 -27v-57q0 -14 -5 -19.5t-18 -5.5h-389q-19 0 -19 20zM457 530h528l-266 734z" />
<glyph unicode="B" horiz-adv-x="1333" d="M117 20v68q0 22 20 25l68 6q34 3 44.5 13t10.5 36v1139q0 26 -10.5 36t-44.5 13l-66 6q-22 3 -22 24v68q0 8 6 14.5t18 6.5h604q203 0 297.5 -76.5t94.5 -243.5v-55q0 -114 -59 -199t-156 -94q55 -2 105.5 -23.5t92 -61t66 -102.5t24.5 -141v-61q0 -203 -118.5 -310.5 t-384.5 -107.5h-566q-12 0 -18 6.5t-6 13.5zM428 131h270q183 0 261.5 65t78.5 218v69q0 63 -20 110t-50.5 73.5t-75.5 42.5t-87 21t-94 5h-283v-604zM428 862h293q118 0 186 62.5t68 175.5v47q0 98 -60.5 150.5t-181.5 52.5h-305v-488z" />
<glyph unicode="C" horiz-adv-x="1331" d="M166 547v422q0 243 143 380.5t422 137.5q300 0 434 -43q17 -6 17 -23l-17 -282q-1 -18 -10 -23.5t-25 -5.5h-55q-30 0 -33 29l-22 196q-121 23 -289 23q-85 0 -152 -21.5t-110.5 -58t-72 -87t-40.5 -104.5t-12 -114l2 -428q0 -108 20.5 -183.5t69.5 -132.5t135.5 -84.5 t214.5 -27.5q161 0 394 37q21 3 29 -3t8 -28v-57q0 -25 -7 -35.5t-34 -16.5q-170 -34 -400 -34q-147 0 -254 25.5t-175 70.5t-109 117.5t-56.5 156.5t-15.5 197z" />
<glyph unicode="D" horiz-adv-x="1486" d="M115 20v68q0 22 20 25l70 6q33 3 43 12.5t10 36.5v1139q0 26 -10 36t-43 13l-68 6q-22 3 -22 24v68q0 21 20 21h572q145 0 255 -26.5t195 -86t129.5 -164.5t44.5 -254v-414q0 -139 -48 -243t-134.5 -165.5t-197.5 -91.5t-246 -30h-566q-24 0 -24 20zM428 125h291 q64 0 123 11.5t117 40.5t100.5 73.5t69 116t26.5 163.5v414q0 96 -24 169t-64.5 118t-101 73.5t-126 39t-147.5 10.5h-264v-1229z" />
<glyph unicode="E" horiz-adv-x="1263" d="M115 20v68q0 22 20 25l70 6q33 3 43 12.5t10 36.5v1139q0 26 -10 36t-43 13l-68 6q-22 3 -22 24v68q0 21 20 21h957q16 0 21 -7t5 -24l-16 -303q-1 -18 -9 -23.5t-24 -5.5h-57q-16 0 -23 5.5t-8 23.5l-18 180q-2 11 -7.5 15.5t-21.5 4.5l-506 13v-543h469q20 0 27.5 -7.5 t7.5 -27.5v-61q0 -20 -8.5 -27.5t-32.5 -7.5h-463v-557l516 10q35 0 41 27l45 196q6 29 29 29h67q15 0 21.5 -6t5.5 -23l-25 -325q-1 -11 -2.5 -16.5t-7 -10t-14.5 -4.5h-965q-24 0 -24 20z" />
<glyph unicode="F" horiz-adv-x="1185" d="M115 20v66q0 22 20 25l70 8q33 3 43 17.5t10 56.5v1114q0 26 -10 36t-43 13l-68 6q-22 3 -22 24v68q0 8 6 14.5t18 6.5h946q17 0 21 -8t4 -23l-16 -297q-1 -18 -9 -23.5t-24 -5.5h-60q-24 0 -30 29l-17 158q-3 21 -11.5 27.5t-33.5 8.5l-481 9v-582h432q20 0 27.5 -7.5 t7.5 -27.5v-63q0 -20 -8.5 -27.5t-32.5 -7.5h-426v-436q0 -45 8.5 -57.5t44.5 -16.5l113 -10q24 -3 24 -29v-63q0 -23 -24 -23h-455q-12 0 -18 6.5t-6 13.5z" />
<glyph unicode="G" d="M166 528v441q0 118 33.5 211t103 162.5t184.5 107t271 37.5q356 0 504 -45q16 -5 16 -23l-18 -270q0 -17 -7.5 -23t-27.5 -6h-54q-19 0 -25.5 6t-8.5 23l-25 186q-204 27 -350 27q-202 0 -312 -104.5t-110 -284.5l2 -447q0 -102 20 -174.5t67.5 -127.5t130.5 -82t204 -27 q210 0 346 28v424q0 13 -4.5 18t-18.5 7l-149 10q-29 3 -29 33v49q0 17 7 24t26 7h303q31 0 31 -31v-602q0 -24 -6 -31t-37 -16q-193 -55 -473 -55q-323 0 -458.5 130.5t-135.5 417.5z" />
<glyph unicode="H" horiz-adv-x="1617" d="M115 23v63q0 14 4.5 18.5t15.5 6.5l70 6q33 3 43 18.5t10 57.5v1089q0 42 -10 57.5t-43 18.5l-51 6q-21 3 -21 25v65q0 21 23 21h370q25 0 25 -21v-65q0 -22 -21 -25l-49 -6q-35 -4 -44 -19.5t-9 -62.5v-465h762v471q0 42 -10 57.5t-43 18.5l-52 6q-20 3 -20 25v65 q0 21 22 21h371q25 0 25 -21v-65q0 -22 -21 -25l-49 -6q-35 -4 -44 -19.5t-9 -62.5v-1077q0 -47 9 -63t44 -19l70 -6q12 -1 16 -7t4 -18v-61q0 -25 -24 -25h-408q-24 0 -24 23v63q0 14 4.5 18.5t15.5 6.5l70 6q33 3 43 18.5t10 57.5v503h-762v-497q0 -47 9 -63t44 -19l70 -6 q12 -1 16 -7t4 -18v-61q0 -25 -24 -25h-408q-24 0 -24 23z" />
<glyph unicode="I" horiz-adv-x="686" d="M115 23v63q0 14 4.5 18.5t15.5 6.5l70 6q33 3 43 18.5t10 57.5v1089q0 42 -10 57.5t-43 18.5l-51 6q-21 3 -21 25v65q0 21 23 21h370q25 0 25 -21v-65q0 -22 -21 -25l-49 -6q-35 -4 -44 -19.5t-9 -62.5v-1077q0 -47 9 -63t44 -19l70 -6q12 -1 16 -7t4 -18v-61 q0 -25 -24 -25h-408q-24 0 -24 23z" />
<glyph unicode="J" horiz-adv-x="616" d="M49 -258q76 27 113.5 61.5t53 91.5t15.5 160v1227q0 43 -10.5 58t-44.5 18l-49 6q-21 3 -21 25v65q0 21 23 21h371q22 0 22 -21v-65q0 -13 -4 -18t-16 -7l-47 -6q-37 -4 -46.5 -20t-9.5 -62v-1219q0 -63 -5.5 -108t-23 -97.5t-56.5 -95t-99 -75.5q-39 -21 -77 -34.5 t-52 -13.5q-18 0 -25 17l-22 53q-6 14 -6 22q0 10 16 17z" />
<glyph unicode="K" horiz-adv-x="1349" d="M115 23v63q0 14 4.5 18.5t15.5 6.5l70 6q33 3 43 18.5t10 57.5v1089q0 42 -10 57.5t-43 18.5l-51 6q-21 3 -21 25v65q0 21 23 21h370q25 0 25 -21v-65q0 -22 -21 -25l-49 -6q-35 -4 -44 -19.5t-9 -62.5v-1077q0 -47 9 -63t44 -19l70 -6q12 -1 16 -7t4 -18v-61 q0 -25 -24 -25h-408q-24 0 -24 23zM485 756v32q0 19 31 54l481 555q75 90 181 90q61 0 77 -4q13 -5 13 -23v-63q0 -19 -10 -23t-54 -6q-55 0 -98 -51l-455 -522l436 -586q37 -52 64.5 -72t60.5 -20q20 -2 62 -2q14 0 19 -6.5t5 -22.5v-59q0 -8 -5.5 -16t-12.5 -9 q-25 -6 -117 -6q-85 0 -123.5 22t-107.5 117l-416 563q-21 27 -26 36.5t-5 21.5z" />
<glyph unicode="L" horiz-adv-x="1210" d="M96 20v70q0 22 19 25l80 6q29 4 38 14t9 35v1112q0 42 -11 57.5t-45 18.5l-51 6q-20 3 -20 25v65q0 21 24 21h369q24 0 24 -21v-65q0 -22 -20 -25l-47 -6q-37 -4 -46 -19.5t-9 -62.5v-1151l510 14q18 0 26 6t15 21l59 199q3 15 8 21.5t16 6.5h78q13 0 18.5 -5.5 t4.5 -22.5l-41 -334q0 -9 -1 -14t-6 -10.5t-16 -6.5h-964q-10 0 -15.5 6.5t-5.5 13.5z" />
<glyph unicode="M" horiz-adv-x="1849" d="M100 20v62q0 22 15 24l73 7q48 4 48 49v1163q-1 10 -12.5 19t-26.5 12l-62 6q-18 3 -18 24v66q0 23 22 23h234q30 0 42.5 -11.5t22.5 -38.5l475 -1155l496 1172q7 18 14 25.5t23 7.5h262q12 0 18.5 -7t6.5 -14v-63q0 -22 -21 -25l-67 -6q-34 -3 -45 -14.5t-11 -34.5 v-1112q0 -47 9.5 -63t46.5 -19l67 -6q21 -3 21 -25v-61q0 -25 -25 -25h-408q-24 0 -24 23v63q0 14 4.5 18.5t15.5 6.5l70 6q34 3 44.5 18t10.5 58v950l-485 -1114q-9 -21 -29 -21h-37q-18 0 -30 23l-475 1153v-1022q0 -25 9 -35t38 -14l86 -7q18 -3 18 -24v-62 q0 -7 -5 -13.5t-15 -6.5h-379q-17 0 -17 20z" />
<glyph unicode="N" horiz-adv-x="1564" d="M111 20v64q0 22 18 25l74 6q24 2 35.5 13t11.5 36v1190l-4 2l-107 12q-18 2 -18 25v61q0 21 20 21h162q64 0 87.5 -11.5t53.5 -54.5l750 -1100v1002q0 46 -47 49l-72 6q-22 0 -22 29v59q0 21 20 21h375q20 0 20 -21v-63q0 -22 -18 -25l-76 -6q-23 -3 -34 -13.5t-11 -35.5 v-1286q0 -25 -22 -25h-66q-15 0 -24 5.5t-23 27.5l-809 1167v-1036q0 -24 9.5 -35t37.5 -14l57 -6q21 0 21 -25v-64q0 -20 -21 -20h-358q-20 0 -20 20z" />
<glyph unicode="O" horiz-adv-x="1544" d="M170 559v359q0 57 2 99.5t9.5 94t20 89t35 79t53.5 70.5t76 56.5t102.5 44t133.5 26.5t168 10q118 0 210.5 -16.5t155.5 -42.5t108 -70t70 -88t39 -107.5t17.5 -116.5t3.5 -128v-359q0 -59 -2 -103t-9.5 -96t-20 -90.5t-35 -80.5t-54 -71t-77 -57t-103 -44.5 t-134.5 -26.5t-169 -10t-168 10t-133.5 26.5t-102.5 44.5t-76 57t-53.5 71t-35 80.5t-20 90.5t-9.5 96t-2 103zM346 557q0 -90 7.5 -150t32.5 -120t70 -94.5t123.5 -56t190.5 -21.5q82 0 145.5 11t108.5 30t77 50.5t50.5 65t29 82.5t14 94.5t3.5 108.5v363q0 61 -3 104.5 t-13.5 91.5t-29 81t-50.5 64.5t-77 50t-109 29.5t-146 11q-81 0 -144 -11t-107.5 -29.5t-76 -50t-50 -64.5t-29 -80.5t-14 -92t-3.5 -104.5v-363z" />
<glyph unicode="P" horiz-adv-x="1214" d="M115 23v63q0 14 4.5 18.5t15.5 6.5l70 6q33 3 43 18.5t10 57.5v1114q0 26 -10 36t-43 13l-68 6q-22 3 -22 24v68q0 8 6 14.5t18 6.5h490q127 0 219.5 -19.5t164.5 -65.5t108 -127.5t36 -199.5v-68q0 -119 -37 -201t-109 -127.5t-164 -65t-216 -19.5h-203v-383 q0 -47 9 -63t44 -19l70 -6q12 -1 16 -7t4 -18v-61q0 -25 -24 -25h-408q-24 0 -24 23zM428 707h193q184 0 273 68.5t89 225.5v52q0 166 -87 230.5t-275 64.5h-193v-641z" />
<glyph unicode="Q" horiz-adv-x="1540" d="M170 559v359q0 57 2 99.5t9.5 94t20 89t35 79t53.5 70.5t76 56.5t102.5 44t133.5 26.5t168 10q118 0 210.5 -16.5t155.5 -42.5t108 -70t70 -88t39 -107.5t17.5 -116.5t3.5 -128v-359q0 -55 -2 -97t-8 -91t-17 -86t-29.5 -77t-45 -69.5t-64.5 -57.5t-86 -47t-111.5 -32 t-140.5 -18q11 -79 54 -118t125 -65q14 -3 15.5 -11.5t-5.5 -25.5l-23 -53q-6 -16 -24 -16q-38 0 -162 53q-74 39 -108 96.5t-42 137.5q-81 3 -148 15.5t-118 30.5t-91 46t-67.5 57.5t-47 70t-31 78t-17.5 88t-8 92.5t-2 99zM346 557q0 -90 7.5 -150t32.5 -120t70 -94.5 t123.5 -56t190.5 -21.5q82 0 145.5 11t108.5 30t77 50.5t50.5 65t29 82.5t14 94.5t3.5 108.5v363q0 61 -3 104.5t-13.5 91.5t-29 81t-50.5 64.5t-77 50t-109 29.5t-146 11q-81 0 -144 -11t-107.5 -29.5t-76 -50t-50 -64.5t-29 -80.5t-14 -92t-3.5 -104.5v-363z" />
<glyph unicode="R" horiz-adv-x="1355" d="M115 23v63q0 14 4.5 18.5t15.5 6.5l70 6q33 3 43 18.5t10 57.5v1114q0 26 -10 36t-43 13l-68 6q-22 3 -22 24v68q0 8 6 14.5t18 6.5h557q114 0 194.5 -17t141.5 -57.5t91 -112.5t30 -178v-90q0 -287 -272 -354q37 -10 60.5 -39.5t49.5 -89.5l129 -320q26 -63 48 -83.5 t51 -20.5q14 0 33 1t26 1q16 0 19 -5t3 -24v-55q0 -26 -21.5 -32.5t-109.5 -6.5q-95 0 -130.5 28t-82.5 142l-153 379q-24 52 -52 75.5t-81 30.5h-242v-448q0 -47 9 -63t44 -19l70 -6q12 -1 16 -7t4 -18v-61q0 -25 -24 -25h-408q-24 0 -24 23zM428 772h260q299 0 299 248v90 q0 128 -75 188t-224 60h-260v-586z" />
<glyph unicode="S" horiz-adv-x="1157" d="M96 61v86q0 31 35 23q3 -1 44 -9t74.5 -14t84 -14t103 -12t100.5 -4q190 0 269 63t79 191q0 58 -11 97.5t-39.5 67.5t-60 45t-88.5 40l-367 137q-102 37 -148 127t-46 235q0 110 29 183t89.5 113t138 55.5t191.5 15.5q104 0 236 -11t178 -24q18 -4 22.5 -12t2.5 -27 l-19 -250q-2 -21 -7 -29t-19 -8h-52q-17 0 -23 8t-9 29l-33 178q-100 21 -260 21q-167 0 -234 -49.5t-67 -190.5q0 -113 41 -164.5t157 -95.5l359 -131q106 -40 155.5 -125t49.5 -229q0 -113 -33.5 -191t-100.5 -121t-154 -61t-208 -18q-126 0 -250.5 14.5t-183.5 32.5 q-25 5 -25 28z" />
<glyph unicode="T" horiz-adv-x="1222" d="M29 1444q0 10 0.5 15t5.5 10.5t16 5.5h1123q11 0 16 -5.5t5.5 -10.5t0.5 -15l-16 -301q-1 -14 -6.5 -20.5t-10.5 -7.5t-16 -1h-57q-26 0 -31 29l-19 180q0 23 -24 23l-320 6v-1151q0 -47 9.5 -63t46.5 -19l84 -8q20 -3 20 -25v-66q0 -20 -25 -20h-440q-24 0 -24 20v66 q0 22 20 25l86 8q37 3 46 19t9 59v1155l-323 -6q-23 0 -23 -21l-18 -182q-1 -13 -10 -21t-21 -8h-55q-16 0 -24 6t-9 23z" />
<glyph unicode="U" horiz-adv-x="1488" d="M88 1384v70q0 7 5.5 14t15.5 7h253q21 0 21 -21v-960q0 -218 74 -301.5t268 -83.5q94 0 192 18t162 47v1108q0 42 -10 57.5t-43 18.5l-51 6q-21 3 -21 25v65q0 21 23 21h371q24 0 24 -21v-65q0 -22 -20 -25l-49 -6q-36 -4 -45 -19.5t-9 -62.5v-1106q0 -25 9 -35t38 -14 l60 -6q18 -3 18 -25v-70q0 -7 -5 -13.5t-15 -6.5h-254q-21 0 -21 20v33q-72 -34 -183 -53.5t-204 -19.5q-125 0 -212 26t-148.5 85.5t-90 158t-28.5 242.5v813q0 25 -9 35t-38 14l-60 6q-18 3 -18 24z" />
<glyph unicode="V" horiz-adv-x="1386" d="M18 1389v65q0 9 7 15t18 6h381q22 0 22 -23v-61q0 -22 -16 -25l-68 -8q-19 -2 -27.5 -15t-0.5 -38l389 -1084l367 1082q3 9 3 17q0 31 -46 36l-62 6q-16 3 -16 24v64q0 14 4.5 19.5t17.5 5.5h363q16 0 16 -21v-68q0 -21 -14 -24l-58 -8q-29 -4 -44 -21.5t-33 -64.5 l-433 -1229q-11 -28 -16 -33.5t-22 -5.5h-95q-6 0 -10.5 1t-8 2t-6.5 4l-4.5 4.5t-4 7.5t-3.5 8t-4 10.5t-4 11.5l-442 1231q-15 41 -27.5 57t-38.5 19l-69 8q-15 0 -15 25z" />
<glyph unicode="W" horiz-adv-x="2021" d="M14 1389v65q0 9 6 15t15 6h368q23 0 23 -23v-59q0 -22 -16 -25l-76 -8q-24 -2 -24 -28q0 -11 5 -27l318 -1069l309 1159q5 16 23 16h127q19 0 22 -14l328 -1143l307 1055q7 25 1 35.5t-28 13.5l-61 6q-16 3 -16 25v61q0 14 4 19.5t16 5.5h320q22 0 22 -23v-66 q0 -21 -16 -24l-54 -6q-26 -3 -38 -17.5t-21 -42.5l-377 -1245q-10 -32 -16.5 -41.5t-24.5 -9.5h-78q-19 0 -27 5.5t-12 23.5l-333 1142l-314 -1140l-2 2v-2q-5 -17 -11 -24t-19 -7h-99q-15 0 -22 5.5t-13 23.5l-380 1249q-10 39 -23.5 58.5t-40.5 23.5l-57 6q-15 3 -15 23z " />
<glyph unicode="X" horiz-adv-x="1441" d="M82 20v72q0 19 22 19l64 6q33 3 50.5 17t51.5 67l357 540l-355 531q-32 50 -50 64t-58 20l-37 6q-12 1 -15 5.5t-3 16.5v70q0 21 18 21h375q22 0 22 -23v-61q0 -13 -5 -18t-19 -7l-41 -6q-25 -3 -25 -20q0 -13 15 -35l290 -439l293 437q21 34 17.5 45t-33.5 14l-49 6 q-23 3 -23 23v65q0 19 21 19h340q16 0 20 -6t4 -21v-62q0 -9 -3 -13.5t-7 -6t-12 -2.5l-54 -8q-28 -6 -41.5 -17.5t-33.5 -42.5l-367 -540l373 -557q31 -49 50 -64t56 -20l49 -4q21 -3 21 -25v-63q0 -23 -23 -23h-422q-18 0 -18 23v61q0 19 21 22l73 7q20 2 27 14.5t-8 40.5 l-310 461l-307 -473q-21 -38 17 -41l71 -6q12 -2 16.5 -7t4.5 -18v-64q0 -20 -21 -20h-379q-20 0 -20 20z" />
<glyph unicode="Y" horiz-adv-x="1349" d="M55 1389v63q0 23 23 23h391q18 0 18 -23v-61q0 -20 -18 -23l-63 -6q-28 -4 -28 -25q0 -12 9 -30l311 -590l328 581q19 32 15.5 46.5t-33.5 17.5l-45 4q-12 2 -16.5 7t-4.5 18v63q0 21 21 21h331q21 0 21 -21v-72q0 -9 -7 -14.5t-16 -5.5l-49 -6q-24 -3 -36.5 -14.5 t-28.5 -41.5l-412 -712v-393q0 -42 10 -57.5t47 -18.5l80 -8q14 -2 19.5 -7t5.5 -18v-66q0 -20 -23 -20h-450q-21 0 -21 18v72q0 18 21 21l86 8q36 3 46.5 17.5t10.5 58.5v380l-393 717q-22 39 -36 49.5t-50 16.5l-45 6q-19 3 -19 25z" />
<glyph unicode="Z" horiz-adv-x="1249" d="M115 43q0 55 45 131l735 1176l-573 -9q-10 0 -13.5 -3.5t-5.5 -12.5l-20 -178q-3 -18 -11 -23.5t-26 -5.5h-60q-15 0 -21 6t-7 23l-13 280q0 25 11 35.5t39 10.5h888q27 0 27 -37q0 -62 -45 -133l-733 -1170l604 6q11 0 17 6t12 25l47 184q4 20 11.5 25.5t25.5 5.5h67 q25 0 25 -24v-5l-27 -315q-3 -24 -11.5 -32.5t-35.5 -8.5h-926q-26 0 -26 43z" />
<glyph unicode="[" horiz-adv-x="477" d="M51 -141v1630q1 29 18 44t44 15h293q10 0 15 -6.5t5 -13.5v-64q0 -21 -18 -24l-138 -6q-29 -4 -38 -14.5t-9 -35.5v-1425q0 -25 9 -35t38 -14l138 -6q18 -3 18 -25v-74q0 -7 -5 -13.5t-15 -6.5h-287q-44 0 -56 12.5t-12 61.5z" />
<glyph unicode="\" horiz-adv-x="694" d="M23 1339q-14 39 26 54l17 8q39 16 55 -21l543 -1323q11 -41 -23 -53l-25 -10q-38 -13 -51 20z" />
<glyph unicode="]" horiz-adv-x="477" d="M51 -121q0 22 19 25l137 6q29 4 38 14t9 35v1425q0 25 -9 35.5t-38 14.5l-137 6q-19 3 -19 24v64q0 7 5.5 13.5t15.5 6.5h290q58 0 64 -59v-1630q0 -49 -12 -61.5t-56 -12.5h-286q-10 0 -15.5 6.5t-5.5 13.5v74z" />
<glyph unicode="^" horiz-adv-x="1081" d="M223 940l230 467h176l229 -467h-147l-170 365l-170 -365h-148z" />
<glyph unicode="_" horiz-adv-x="944" d="M25 -236q0 31 26 31h836q26 0 26 -31v-53q0 -30 -26 -30h-836q-26 0 -26 30v53z" />
<glyph unicode="`" horiz-adv-x="628" d="M127 1743q0 13 14 31q12 18 39 6q144 -63 330 -84q52 -6 27 -82q-13 -40 -30.5 -52t-45.5 -3q-184 55 -318 153q-16 14 -16 31z" />
<glyph unicode="a" horiz-adv-x="1161" d="M129 258v53q0 48 7.5 86t30.5 77t61 65t104 42.5t155 16.5q105 0 295 -10v119q0 131 -43 174t-176 43q-115 0 -229 -15l-25 -159q-2 -18 -6.5 -23.5t-21.5 -5.5h-54q-17 0 -21.5 5.5t-6.5 23.5l-15 215q-5 19 -2 34.5t23 20.5q29 9 141 16.5t221 7.5q57 0 97 -2.5t83 -11 t71.5 -23.5t55 -40t41.5 -61t24 -87t9 -117v-524q0 -42 15.5 -57t48.5 -15q12 0 41 5q26 6 26 -19v-74q0 -18 -22 -24q-33 -10 -101 -10q-113 0 -153 69q-150 -73 -324 -73q-88 0 -152.5 15.5t-102 39.5t-59.5 62t-29 75t-7 86zM297 256q0 -86 48.5 -120t160.5 -34 q134 0 276 66v293q-273 10 -282 10q-106 0 -154.5 -39.5t-48.5 -118.5v-57z" />
<glyph unicode="b" horiz-adv-x="1167" d="M78 1466v52q0 12 5 16t19 6l107 19q61 12 104 12q52 0 52 -49v-549q57 30 146 50.5t189 20.5q183 0 258.5 -90t75.5 -290v-304q0 -200 -77.5 -290t-268.5 -90q-176 0 -323 67v-14q0 -19 -6 -26t-21 -7h-109q-17 0 -23.5 7t-6.5 26v1345q0 27 -9 37t-36 15l-54 8 q-22 2 -22 28zM365 170q48 -26 123 -46t145 -20q124 0 177.5 52.5t53.5 201.5v308q0 145 -50 199.5t-163 54.5q-73 0 -152.5 -23.5t-133.5 -52.5v-674z" />
<glyph unicode="c" horiz-adv-x="1075" d="M133 412v229q0 200 105 301.5t333 101.5q78 0 178 -6.5t140 -17.5q16 -5 19 -11t3 -20l-18 -254q-1 -16 -7 -20t-24 -4h-55q-22 0 -25 24l-22 170q-128 15 -193 15q-138 0 -202 -75t-64 -200v-235q0 -162 68.5 -230.5t222.5 -68.5q40 0 82.5 3t82 8.5t65 9t56.5 9.5l31 6 q14 3 19.5 -4.5t5.5 -23.5v-76q0 -21 -25 -27q-45 -13 -143.5 -24.5t-190.5 -11.5q-128 0 -215 27.5t-136.5 84.5t-70 134t-20.5 186z" />
<glyph unicode="d" horiz-adv-x="1196" d="M133 377v270q0 210 81 303.5t282 93.5q168 0 313 -49v383q0 27 -9 37t-36 15l-53 8q-23 3 -23 28v52q0 12 5.5 16t19.5 6l106 19q61 12 105 12q51 0 51 -49v-1344q0 -42 15 -57t48 -15q12 0 41 5q27 6 27 -19v-74q0 -18 -23 -24q-33 -10 -100 -10q-108 0 -147 61 q-149 -65 -340 -65q-201 0 -282 93.5t-81 303.5zM303 375q0 -155 57.5 -213t188.5 -58q110 0 260 52v716q-160 50 -260 50q-131 0 -188.5 -57.5t-57.5 -215.5v-274z" />
<glyph unicode="e" horiz-adv-x="1124" d="M133 412v219q0 105 21 180t56.5 120t94 70.5t120.5 34t150 8.5q110 0 181 -12.5t124.5 -46.5t77 -95.5t23.5 -158.5q0 -57 -7.5 -99t-21 -74.5t-40 -53.5t-57.5 -35.5t-80 -21.5t-101 -10t-127 -3h-246v-24q0 -56 4 -94.5t15 -75t32 -59t55 -40t83 -25t116 -7.5 q140 0 336 36q29 5 37 1.5t8 -23.5v-70q0 -20 -7 -26.5t-32 -12.5q-180 -34 -366 -34q-133 0 -220.5 25t-138 80.5t-70.5 133t-20 193.5zM301 553h242q63 0 103 2t73.5 9.5t50.5 18.5t28.5 32t15 46.5t3.5 65.5q0 112 -51 155.5t-191 43.5q-159 0 -216.5 -58.5t-57.5 -228.5 v-86z" />
<glyph unicode="f" horiz-adv-x="778" d="M98 928v67q0 27 21 27h125v244q0 155 68.5 230t228.5 75q56 0 122.5 -7t92.5 -16q16 -5 19 -11t3 -19l-16 -209q-3 -29 -31 -29h-49q-23 0 -29 29l-14 131q-27 8 -84 8q-145 0 -145 -180v-246h200q13 0 17 -6t4 -21v-67q0 -27 -23 -27h-198v-733q0 -26 11.5 -36t45.5 -13 l92 -10q21 -3 21 -25v-61q0 -23 -23 -23h-410q-22 0 -22 23v61q0 22 20 25l37 6q39 6 50.5 16t11.5 37v733h-121q-25 0 -25 27z" />
<glyph unicode="g" horiz-adv-x="1165" d="M133 401v263q0 199 84 289.5t285 90.5q169 0 313 -63q7 47 68 47q36 0 176 -24q26 -3 26 -27v-51q0 -22 -24 -25l-35 -6q-14 -2 -23 -6t-16.5 -15.5t-7.5 -29.5v-916q0 -105 -23.5 -170.5t-81.5 -105t-143.5 -54t-222.5 -14.5q-228 0 -299 21q-17 4 -21 10t-4 18v68 q0 17 5.5 23t17.5 4q144 -19 297 -19q49 0 83 2t73 9t64 22t46.5 38.5t32 60t10.5 85.5v160q-61 -29 -152.5 -47.5t-185.5 -18.5q-192 0 -267 88.5t-75 292.5zM303 399q0 -142 49 -198t160 -56q151 0 301 66v649q-141 60 -268 60q-134 0 -188 -54.5t-54 -199.5v-267z" />
<glyph unicode="h" horiz-adv-x="1239" d="M90 1466v52q0 11 5 15.5t18 6.5l106 19q65 12 107 12q51 0 51 -49v-584q183 106 375 106q47 0 84 -6.5t74 -26t61.5 -51t39.5 -85.5t15 -127v-570q0 -42 14 -57t47 -15q14 0 43 5q27 6 27 -19v-74q0 -18 -22 -24q-38 -10 -103 -10q-99 0 -135.5 47t-36.5 135v563 q0 99 -42.5 139.5t-121.5 40.5q-138 0 -319 -96v-649q0 -28 10 -36.5t51 -14.5l37 -7q21 -3 21 -24v-59q0 -23 -23 -23h-360q-21 0 -21 23v59q0 21 19 24l39 7q39 6 50 15t11 36v1214q0 27 -10 37t-37 15l-53 8q-21 2 -21 28z" />
<glyph unicode="i" horiz-adv-x="581" d="M82 924v49q0 14 6 19.5t23 8.5l100 17q74 12 98 12q60 0 60 -61v-791q0 -42 14 -57t47 -15q12 0 43 5q27 7 27 -19v-74q0 -18 -23 -24q-38 -10 -102 -10q-99 0 -135.5 47t-36.5 135v674q0 27 -10.5 37.5t-36.5 13.5l-50 8q-14 2 -19 6.5t-5 18.5zM180 1321v33q0 40 16 59 t60 19h49q45 0 61.5 -18.5t16.5 -57.5v-35q0 -39 -16.5 -56.5t-61.5 -17.5h-49q-45 0 -60.5 17.5t-15.5 56.5z" />
<glyph unicode="j" horiz-adv-x="567" d="M80 -272q-6 9 -6 17q0 14 20 24q54 28 90 67q23 24 30 50.5t7 82.5v871q0 27 -10.5 37.5t-36.5 13.5l-51 8q-13 2 -18 6.5t-5 18.5v49q0 14 5 19.5t22 8.5l102 17q74 12 99 12q59 0 59 -61v-987q0 -108 -29 -165.5t-106 -101.5q-60 -34 -96 -51q-14 -7 -25 -7 q-16 0 -25 15zM205 1321v33q0 40 16 59t60 19h49q45 0 61.5 -18.5t16.5 -57.5v-35q0 -39 -16.5 -56.5t-61.5 -17.5h-49q-45 0 -60.5 17.5t-15.5 56.5z" />
<glyph unicode="k" horiz-adv-x="1142" d="M78 1466v52q0 12 5 16t19 6l107 19q61 12 104 12q52 0 52 -49v-957l342 293q23 21 23 34q0 14 -30 17l-36 6q-19 3 -19 25v61q0 13 5.5 18t17.5 5h364q23 0 23 -23v-61q0 -22 -19 -25l-41 -6q-12 -2 -22.5 -5t-17.5 -6t-17 -9.5t-15 -10.5t-17.5 -13t-20.5 -15l-291 -246 l272 -387q49 -71 75.5 -92t66.5 -21q14 0 33.5 3.5t25.5 3.5q13 0 16.5 -6.5t3.5 -22.5v-64q0 -17 -14 -22q-84 -12 -102 -12q-94 0 -138 31.5t-135 158.5l-231 324l-102 -86v-248q0 -28 10 -36.5t51 -14.5l39 -7q10 -1 14 -6.5t4 -17.5v-59q0 -23 -20 -23h-361 q-22 0 -22 23v59q0 21 20 24l37 7q41 6 51.5 15t10.5 36v1214q0 27 -9 37t-36 15l-54 8q-22 2 -22 28z" />
<glyph unicode="l" horiz-adv-x="577" d="M72 1466v52q0 12 5 16t17 6l107 19q64 12 106 12q51 0 51 -49v-1344q0 -42 14.5 -57t47.5 -15q12 0 43 5q26 7 26 -19v-74q0 -18 -22 -24q-38 -10 -102 -10q-99 0 -135.5 47t-36.5 135v1212q0 27 -10.5 37t-37.5 15l-53 8q-20 2 -20 28z" />
<glyph unicode="m" horiz-adv-x="1755" d="M98 924v49q0 14 6 19.5t23 8.5l102 17q74 12 97 12q59 0 59 -61v-8q157 83 344 83q154 0 205 -102q188 102 344 102q47 0 83 -6t71.5 -23t58.5 -45.5t37 -76.5t14 -113v-602q0 -42 14.5 -57t47.5 -15q14 0 43 5q26 6 26 -19v-74q0 -18 -22 -24q-38 -10 -103 -10 q-98 0 -135 47t-37 135v598q0 85 -35.5 116t-109.5 31q-62 0 -121.5 -15.5t-146.5 -66.5q4 -40 4 -65v-600q0 -28 10 -36.5t51 -14.5l39 -7q10 -1 14 -6.5t4 -17.5v-59q0 -23 -20 -23h-360q-23 0 -23 23v59q0 21 20 24l37 7q41 6 51.5 15t10.5 36v592q0 93 -31.5 124 t-97.5 31q-64 0 -120.5 -15.5t-166.5 -66.5v-665q0 -28 10 -36.5t51 -14.5l39 -7q19 -3 19 -24v-59q0 -23 -21 -23h-360q-23 0 -23 23v59q0 21 21 24l37 7q40 6 50.5 15t10.5 36v676q0 27 -10 37.5t-35 13.5l-51 8q-14 2 -19.5 6.5t-5.5 18.5z" />
<glyph unicode="n" horiz-adv-x="1245" d="M98 934v49q0 14 6 20t23 9l102 16q62 10 97 10q59 0 59 -59v-39q186 104 373 104q47 0 84 -6.5t74 -26t61.5 -51t39.5 -85.5t15 -127v-570q0 -42 14.5 -57t47.5 -15q14 0 43 5q26 6 26 -19v-74q0 -18 -22 -24q-38 -10 -103 -10q-98 0 -135 47t-37 135v563 q0 100 -41.5 140t-119.5 40q-143 0 -320 -96v-649q0 -28 10 -36.5t51 -14.5l39 -7q19 -3 19 -24v-59q0 -23 -21 -23h-360q-23 0 -23 23v59q0 21 21 24l37 7q40 6 50.5 15t10.5 36v686q0 27 -10 37.5t-35 13.5l-51 6q-14 3 -19.5 8t-5.5 19z" />
<glyph unicode="o" horiz-adv-x="1169" d="M133 344v336q0 189 110 276.5t343 87.5q231 0 340.5 -86.5t109.5 -277.5v-336q0 -192 -108.5 -278t-343.5 -86q-236 0 -343.5 86.5t-107.5 277.5zM303 344q0 -129 67.5 -181t213.5 -52q147 0 215.5 52t68.5 181v336q0 125 -66.5 179t-215.5 54q-150 0 -216.5 -54.5 t-66.5 -178.5v-336z" />
<glyph unicode="p" horiz-adv-x="1173" d="M88 924v49q0 14 6 19.5t23 8.5l102 17q74 12 96 12q56 0 60 -55q134 69 334 69q182 0 257.5 -90t75.5 -290v-304q0 -200 -78 -290t-270 -90q-172 0 -319 65v-291q0 -25 12 -35t49 -16l80 -8q19 -3 19 -25v-63q0 -23 -21 -23h-401q-23 0 -23 23v59q0 22 21 25l36 6 q39 6 50.5 16t11.5 35v1092q0 27 -10 37.5t-35 13.5l-51 8q-14 2 -19.5 6.5t-5.5 18.5zM375 168q49 -26 122.5 -45t141.5 -19q63 0 104 10.5t71.5 38.5t44 78t13.5 127v308q0 145 -51 199.5t-162 54.5q-72 0 -150.5 -22.5t-133.5 -51.5v-678z" />
<glyph unicode="q" horiz-adv-x="1161" d="M133 377v270q0 210 81 303.5t282 93.5q166 0 305 -47q18 33 63 33q36 0 176 -24q27 -3 27 -25v-53q0 -20 -25 -25l-34 -6q-47 -6 -47 -51v-1098q0 -25 11.5 -35t49.5 -16l39 -6q18 -3 18 -25v-59q0 -23 -20 -23h-387q-23 0 -23 23v59q0 22 21 25l63 10q39 4 50.5 14 t11.5 35v279q-142 -49 -299 -49q-201 0 -282 93.5t-81 303.5zM303 375q0 -155 57.5 -213t188.5 -58q108 0 246 48v727q-142 43 -246 43q-131 0 -188.5 -57.5t-57.5 -215.5v-274z" />
<glyph unicode="r" horiz-adv-x="927" d="M98 934v49q0 14 6 20t23 9l102 16q62 10 97 10q59 0 59 -59v-68q164 133 328 133q46 0 67.5 -10.5t20.5 -42.5l-17 -243q-3 -29 -26 -29h-64q-25 0 -28 29l-17 157q-60 -3 -131 -36t-133 -83v-618q0 -26 12.5 -36t48.5 -15l101 -11q20 -2 20 -24v-62q0 -20 -18 -20h-430 q-19 0 -19 18v64q0 21 19 24l39 7q38 6 49.5 15t11.5 32v690q0 27 -10 37.5t-35 13.5l-51 6q-14 3 -19.5 8t-5.5 19z" />
<glyph unicode="s" horiz-adv-x="1003" d="M109 55v78q0 27 32 21q179 -41 318 -41q132 0 199 35t67 118q0 63 -37.5 95.5t-120.5 62.5q-28 9 -91 27.5t-113.5 35.5t-86.5 33t-60 32t-46 43.5t-32.5 69.5t-10.5 101q0 57 13.5 101.5t32.5 73.5t52.5 49.5t61 30.5t71.5 15.5t70.5 6.5t69.5 1q92 0 191.5 -7.5 t137.5 -18.5q16 -5 19.5 -11.5t3.5 -19.5l-16 -217q-3 -27 -27 -27h-47q-16 0 -24 5.5t-11 21.5l-27 141q-99 13 -198 13q-122 0 -169.5 -29t-47.5 -115q0 -73 32 -105t115 -61q5 -2 72 -22t134 -41t97 -33q74 -31 112 -86t38 -151q0 -85 -28 -143.5t-84 -90.5t-126.5 -45.5 t-167.5 -13.5q-92 0 -192.5 12.5t-145.5 24.5q-19 4 -24.5 10t-5.5 20z" />
<glyph unicode="t" horiz-adv-x="718" d="M82 928v69q0 27 27 27h45q23 0 40 10t27 24t18 39t11.5 44t8.5 50t9 48q9 29 35 29h43q27 0 27 -27v-217h215q26 0 26 -27v-69q0 -27 -26 -27h-217v-700q0 -56 24 -77.5t82 -21.5q20 0 44.5 2t41.5 4.5t34.5 5.5t20.5 3q23 3 23 -17v-67q0 -16 -5.5 -21.5t-17.5 -9.5 q-24 -7 -83 -14.5t-111 -7.5q-117 0 -168 52t-51 154v715h-96q-27 0 -27 27z" />
<glyph unicode="u" horiz-adv-x="1228" d="M82 918v49q0 15 6 21t23 9l100 15q74 12 98 12q60 0 60 -59v-703q0 -86 42 -119.5t140 -33.5q76 0 143 16.5t156 50.5v660q0 27 -10 37.5t-35 13.5l-51 6q-25 3 -25 25v49q0 15 6 21t23 9l100 15q74 12 98 12q60 0 60 -59v-787q0 -42 14.5 -57t48.5 -15q12 0 41 5 q27 6 27 -19v-74q0 -18 -23 -24q-33 -10 -102 -10q-120 0 -156 77q-166 -81 -379 -81q-148 0 -216 60t-68 208v588q0 27 -10.5 37.5t-36.5 13.5l-50 6q-14 2 -19 7t-5 18z" />
<glyph unicode="v" horiz-adv-x="1130" d="M43 940v64q0 20 20 20h361q13 0 16.5 -4.5t3.5 -15.5v-64q0 -19 -18 -22l-37 -7q-39 -4 -46.5 -13.5t3.5 -37.5l242 -659l243 657q9 29 0.5 37.5t-47.5 13.5l-39 6q-18 3 -18 25v61q0 13 5.5 18t17.5 5h319q21 0 21 -20v-64q0 -22 -19 -25l-45 -6q-36 -6 -47 -15t-23 -44 l-313 -827q-6 -15 -11.5 -19t-19.5 -4h-96q-20 0 -29 23l-307 808q-16 47 -28.5 59.5t-45.5 18.5l-45 6q-18 3 -18 25z" />
<glyph unicode="w" horiz-adv-x="1673" d="M43 940v64q0 20 20 20h357q20 0 20 -20v-62q0 -24 -16 -24l-39 -7q-39 -4 -46.5 -13.5t3.5 -37.5l205 -643l233 729q9 25 25 25h88q19 0 25 -25l229 -729l225 643q10 28 1.5 37t-48.5 14l-37 7q-18 3 -18 24v55q0 27 22 27h322q18 0 18 -18v-68q0 -20 -18 -23l-45 -6 q-31 -5 -44.5 -16t-25.5 -43l-297 -830q-4 -13 -9.5 -16.5t-18.5 -3.5h-93q-13 0 -19 5t-11 18l-220 682l-223 -685q-4 -13 -10.5 -16.5t-19.5 -3.5h-93q-12 0 -16.5 4t-9.5 16l-279 814q-17 46 -29.5 58t-44.5 17l-45 6q-18 3 -18 25z" />
<glyph unicode="x" horiz-adv-x="1040" d="M59 31v47q0 20 8.5 27.5t24.5 9.5l70 6q27 0 43 26l225 367l-225 356q-18 31 -49 35l-66 8q-20 0 -20 19v72q0 20 26 20h135q70 0 99 -47l207 -330l206 336q29 41 80 41h121q29 0 29 -25v-63q0 -25 -29 -25l-78 -8q-26 0 -39 -26l-217 -349l238 -378q9 -15 17.5 -22.5 t15 -9.5t18.5 -3l72 -9q9 -2 12.5 -6t3.5 -14v-63q0 -23 -26 -23h-121q-44 0 -72 14.5t-55 55.5l-209 327l-219 -356q-29 -41 -80 -41h-113q-33 0 -33 31z" />
<glyph unicode="y" horiz-adv-x="1144" d="M43 940v64q0 20 20 20h349q11 0 16 -4.5t5.5 -8.5t0.5 -14v-55q0 -21 -18 -24l-37 -7q-38 -4 -44 -12.5t5 -36.5l254 -712l258 712q13 29 -2 38.5t-62 14.5l-16 3q-14 3 -14 18v61q0 10 0.5 14t5.5 8.5t16 4.5h305q21 0 21 -20v-64q0 -22 -19 -25l-67 -14 q-14 -3 -22.5 -18.5t-22.5 -55.5l-305 -843q-46 -128 -82 -203t-83 -127t-102.5 -71t-136.5 -19q-91 0 -129 10q-24 5 -24 27v57q0 23 18 23q77 -11 123 -11q98 0 155 63.5t121 237.5l11 29h-21q-25 0 -35.5 8t-21.5 43l-289 780q-17 49 -28 60.5t-42 17.5l-43 6 q-18 3 -18 25z" />
<glyph unicode="z" horiz-adv-x="1042" d="M94 35q0 47 3.5 66t15.5 36l598 774l-447 -2l-22 -147q-3 -18 -9 -24.5t-22 -6.5h-45q-21 0 -27 7t-8 30l-10 221q0 18 9.5 26.5t33.5 8.5h729q22 0 22 -35q0 -65 -24 -100l-598 -776l500 2l30 147q5 19 11 25t22 6h57q25 0 25 -24v-5l-18 -229q0 -35 -41 -35h-762 q-23 0 -23 35z" />
<glyph unicode="{" horiz-adv-x="593" d="M51 690v76q0 17 8.5 25t36.5 8h45q41 0 41 18v621q0 114 47 166.5t150 52.5h143q10 0 15.5 -7t5.5 -14v-57q0 -22 -19 -25l-127 -6q-14 -1 -23.5 -5.5t-14 -9t-7 -19t-2.5 -21.5v-29v-624q0 -45 -26 -74t-64 -37q38 -10 64 -39t26 -72v-657q0 -25 9 -35t38 -14l127 -6 q19 -3 19 -25v-59q0 -7 -5.5 -14t-15.5 -7h-143q-105 0 -151 48.5t-46 173.5v571q0 61 -49 61q-54 0 -68 6.5t-14 28.5z" />
<glyph unicode="|" horiz-adv-x="307" d="M90 -152l2 1784q0 39 41 39h53q31 0 31 -41l-2 -1782q0 -30 -7.5 -42.5t-31.5 -12.5h-41q-30 0 -37.5 10t-7.5 45z" />
<glyph unicode="}" horiz-adv-x="593" d="M51 -119q0 22 19 25l127 6q29 4 38 14t9 35v657q0 43 26.5 72t65.5 39q-38 8 -65 37t-27 74v624v10q0 22 -0.5 31.5t-5 21t-14.5 16t-27 5.5l-127 6q-19 3 -19 25v57q0 7 5.5 14t15.5 7h143q103 0 150 -52.5t47 -166.5v-621q0 -18 43 -18h43q28 0 36.5 -8t8.5 -25v-76 q0 -22 -13.5 -28.5t-68.5 -6.5q-49 0 -49 -61v-571q0 -126 -45.5 -174t-151.5 -48h-143q-10 0 -15.5 7t-5.5 14v59z" />
<glyph unicode="~" horiz-adv-x="948" d="M59 541q2 16 15 28q66 68 121 96.5t124 28.5q43 0 92 -21t86 -45.5t81.5 -45.5t78.5 -21q38 0 70 14.5t68 57.5q24 29 51 10l33 -33q21 -14 0 -47q-54 -69 -111.5 -99t-126.5 -30q-43 0 -93 21t-87.5 45.5t-83 45.5t-80.5 21q-41 0 -77 -17t-79 -63q-19 -23 -45 -2 l-28 31q-11 9 -9 25z" />
<glyph unicode="&#xa1;" horiz-adv-x="520" d="M162 -328l24 1022q0 22 17 30.5t53 8.5q63 0 63 -37l37 -1022q3 -57 -43 -57h-104q-50 0 -47 55zM166 924v67q0 56 86 56q88 0 88 -56v-67q0 -34 -19 -48.5t-69 -15.5q-47 2 -66.5 16t-19.5 48z" />
<glyph unicode="&#xa2;" horiz-adv-x="1011" d="M133 430v207q0 166 81.5 256.5t262.5 103.5v131q0 39 39 39h55q31 0 31 -41v-129q158 -4 227 -20q21 -6 21 -29l-16 -235q-1 -16 -6.5 -19.5t-20.5 -3.5h-57q-19 0 -25 23l-20 151q-75 10 -170 10q-122 0 -178 -63.5t-56 -171.5v-211q0 -141 60 -198.5t198 -57.5 q58 0 120 7t114 16.5t55 9.5q13 1 17.5 -5.5t4.5 -21.5v-78q0 -18 -20 -24q-83 -23 -246 -33v-98q0 -20 -2 -30t-10.5 -18t-26.5 -8h-41q-28 0 -36.5 11.5t-8.5 44.5v98q-195 11 -270.5 105t-75.5 282z" />
<glyph unicode="&#xa3;" horiz-adv-x="1210" d="M102 20v70q0 22 19 25l78 6q29 4 38 14t9 35v401h-86q-15 0 -21 4t-6 17v86q0 14 6 18t21 4h86v447q0 165 112.5 252.5t335.5 87.5q113 0 244 -15.5t172 -41.5q18 -11 16 -31l-14 -250q-1 -19 -8.5 -26t-22.5 -7h-57q-27 0 -33 33l-24 184q-128 25 -267 25 q-159 0 -224.5 -61t-65.5 -214v-383h235q10 0 15.5 -1t9.5 -5.5t4 -13.5v-86q0 -14 -7 -18.5t-22 -4.5h-235v-446l510 14q18 0 26 6t15 21l59 199q3 15 8 21.5t16 6.5h78q13 0 18.5 -5.5t4.5 -22.5l-41 -334q0 -9 -1 -14t-6 -10.5t-16 -6.5h-958q-10 0 -15.5 6.5t-5.5 13.5z " />
<glyph unicode="&#xa5;" horiz-adv-x="1349" d="M55 1389v63q0 23 23 23h391q18 0 18 -23v-61q0 -20 -18 -23l-63 -6q-44 -6 -19 -55l311 -590l328 581q19 32 15.5 46.5t-33.5 17.5l-45 4q-12 2 -16.5 7t-4.5 18v63q0 21 21 21h331q21 0 21 -21v-72q0 -9 -7 -14.5t-16 -5.5l-49 -6q-24 -3 -36.5 -14.5t-28.5 -41.5 l-387 -669h264q15 0 21.5 -4t6.5 -17v-75q0 -13 -6.5 -17t-21.5 -4h-289v-61h289q28 0 28 -19v-76q0 -14 -6.5 -18t-21.5 -4h-289v-141q0 -42 10 -57.5t47 -18.5l80 -8q14 -2 19.5 -7t5.5 -18v-66q0 -20 -23 -20h-450q-21 0 -21 18v72q0 18 21 21l86 8q36 3 46.5 17.5 t10.5 58.5v141h-291q-15 0 -20.5 3.5t-5.5 16.5v76q0 13 6 17t20 4h291v61h-291q-15 0 -20.5 3.5t-5.5 14.5v76q0 14 5.5 18.5t20.5 4.5h260l-362 661q-22 39 -36 49.5t-50 16.5l-45 6q-19 3 -19 25z" />
<glyph unicode="&#xa7;" horiz-adv-x="1177" d="M143 1128q0 108 29 179.5t90 110.5t138.5 54t191.5 15q104 0 235 -10t179 -23q17 -6 21.5 -14t2.5 -25l-18 -246q-1 -20 -7.5 -27t-21.5 -7h-49q-17 0 -23.5 7t-9.5 27l-33 174q-108 19 -260 19q-168 0 -234.5 -47.5t-66.5 -181.5q0 -107 41.5 -157.5t157.5 -94.5 l473 -174q64 -20 41 -68l-27 -61q-10 -20 -26 -23.5t-43 6.5l-588 215q-193 69 -193 352zM145 -102l17 245q2 21 7.5 29t20.5 8h50q17 0 23 -8t9 -29l33 -174q106 -18 260 -18q168 0 234.5 47.5t66.5 183.5q0 107 -41 157.5t-155 94.5l-484 174q-64 19 -41 68l27 61 q16 37 68 17l598 -217q194 -67 194 -353q0 -87 -20 -150t-55.5 -103t-93.5 -63.5t-124.5 -32.5t-156.5 -9q-107 0 -237 10.5t-175 24.5q-19 4 -23 12t-2 25z" />
<glyph unicode="&#xa8;" horiz-adv-x="833" d="M174 1608v65q0 18 9 29.5t26.5 15.5t29.5 5t33 1q35 0 47.5 -15.5t12.5 -45.5v-66q0 -17 -7 -27t-23.5 -14t-29.5 -5t-39 -1q-35 0 -47 14t-12 44zM502 1608v65q0 24 18 36t34.5 13.5t45.5 1.5q36 0 47.5 -15t11.5 -46v-66q0 -17 -7 -27t-23 -14t-28.5 -5t-37.5 -1 q-37 0 -49 14t-12 44z" />
<glyph unicode="&#xa9;" horiz-adv-x="1427" d="M72 496v450q0 256 149.5 370t497.5 114q347 0 497 -113t150 -371v-450q0 -262 -148.5 -375t-500.5 -113q-239 0 -380 51t-203 156.5t-62 280.5zM223 492q0 -87 22 -150t61.5 -103t103 -64t137 -33t172.5 -9q124 0 211 16.5t154 56t100 110.5t33 176v483q0 182 -122 263 t-372 81q-254 0 -377 -82.5t-123 -263.5v-481zM422 678v178q0 139 80.5 213t234.5 74h55.5t52.5 -1.5t51.5 -4t39 -7t29 -12.5t8.5 -18l-10 -185q0 -9 -3 -13t-6.5 -4.5t-10.5 -0.5h-1.5h-1.5h-47q-17 0 -19 18l-20 109q-10 1 -30.5 4t-38.5 4.5t-44 1.5q-86 0 -138 -49.5 t-52 -132.5v-250q0 -83 41 -115.5t121 -35.5q46 -3 151 8l21 100q3 19 18 19h53q7 0 11 -1t7 -5t3 -13l14 -151q2 -20 -1.5 -28.5t-22.5 -12.5q-31 -9 -97.5 -17t-111.5 -8q-86 0 -145 12.5t-97 36t-58.5 66t-28 93.5t-7.5 128z" />
<glyph unicode="&#xab;" horiz-adv-x="890" d="M90.5 559q-0.5 12 13.5 35l175 289q11 19 22 24.5t33 5.5h92q19 0 24 -12.5t-4 -23.5l-186 -318l189 -315q8 -12 1 -24.5t-22 -12.5h-98q-36 0 -56 37l-168 278q-15 25 -15.5 37zM441.5 559q-0.5 12 13.5 35l174 289q11 19 22 24.5t33 5.5h92q19 0 24.5 -12.5t-3.5 -23.5 l-187 -318l189 -315q8 -12 1 -24.5t-22 -12.5h-98q-35 0 -55 37l-168 278q-15 25 -15.5 37z" />
<glyph unicode="&#xac;" horiz-adv-x="995" d="M14 352v195h887v-547h-209v352h-678z" />
<glyph unicode="&#xad;" horiz-adv-x="618" d="M117 561v84q0 15 6.5 20t21.5 5h365q31 0 31 -23v-84q0 -14 -7.5 -19t-23.5 -5h-365q-16 0 -22 4.5t-6 17.5z" />
<glyph unicode="&#xae;" horiz-adv-x="790" d="M84 1118v228q0 123 73 177t238 54q164 0 237 -53t73 -178v-228q0 -125 -72.5 -178t-239.5 -53t-238 53t-71 178zM156 1112q0 -94 54.5 -126t184.5 -32q127 0 183.5 33.5t56.5 124.5v252q0 80 -56 116t-182 36q-128 0 -184.5 -37t-56.5 -117v-250zM252 1069v14q0 16 6 21 t13.5 2t13.5 -0.5t6 14.5v248q0 15 -19.5 17t-19.5 14v28q0 6 3.5 8.5t6.5 2.5h12h148q56 0 86.5 -26.5t30.5 -94.5q0 -79 -62 -90q16 -7 23 -25l6 -14l26 -70q2 -5 3.5 -8t4.5 -4.5t4.5 -2t8.5 0t10 0.5q5 1 8.5 -3.5t3.5 -10.5v-25q0 -13 -5.5 -14.5t-39.5 -1.5 q-28 0 -41.5 10t-25.5 39l-35 96q-8 18 -33 18h-39v-94q0 -10 6 -13.5t13.5 -3t13.5 -3t6 -13.5v-20q0 -16 -14 -16h-117q-12 0 -12 20zM356 1280l39 -12q44 0 61 12.5t17 40.5q0 35 -11.5 48t-53.5 13h-52v-102z" />
<glyph unicode="&#xaf;" horiz-adv-x="618" d="M117 1599v74q0 17 4.5 21t19.5 4h375q14 0 19.5 -4.5t5.5 -18.5v-73q0 -14 -5.5 -18.5t-19.5 -4.5h-375q-15 0 -19.5 3.5t-4.5 16.5z" />
<glyph unicode="&#xb0;" horiz-adv-x="770" d="M66 1157q0 136 89.5 228t229.5 92q144 0 232 -93.5t88 -226.5q0 -135 -90.5 -227t-229.5 -92q-144 0 -231.5 93.5t-87.5 225.5zM205 1157q0 -94 47 -156.5t133 -62.5t133 62.5t47 156.5q0 93 -47.5 156t-132.5 63t-132.5 -63t-47.5 -156z" />
<glyph unicode="&#xb1;" horiz-adv-x="927" d="M76 41v55q0 14 8.5 22.5t21.5 8.5h715q13 0 22 -8.5t9 -22.5v-55q0 -13 -9 -22t-22 -9h-715q-13 0 -21.5 8.5t-8.5 22.5zM76 610v54q0 14 8 22t22 8h295v332q0 14 8.5 22.5t22.5 8.5h64q13 0 21.5 -8.5t8.5 -22.5v-332h295q14 0 22.5 -8.5t8.5 -21.5v-54 q0 -13 -8.5 -21.5t-22.5 -8.5h-295v-320q0 -14 -8.5 -22.5t-21.5 -8.5h-64q-14 0 -22.5 8.5t-8.5 22.5v320h-295q-14 0 -22 8t-8 22z" />
<glyph unicode="&#xb4;" horiz-adv-x="618" d="M131.5 1659q5.5 17 30.5 24q151 38 291 93q27 8 34 -4l17 -35q6 -16 -15 -31q-132 -90 -290 -145q-37 -15 -62 47q-11 34 -5.5 51z" />
<glyph unicode="&#xb6;" horiz-adv-x="1206" d="M94 1026q0 90 10.5 158t36 124.5t67 92t104 55t147.5 19.5h178q16 0 26 -3.5t13.5 -11.5t4.5 -14.5t1 -18.5l2 -1706q0 -23 -11.5 -31.5t-33.5 -8.5h-64q-15 1 -19 1.5t-12.5 4.5t-11 12t-2.5 22v897h-43q-393 0 -393 408zM819 -274v1699q2 25 10 35.5t33 14.5h193 q10 0 15 -7t5 -14v-49q0 -22 -18 -25l-39 -6q-28 -3 -39 -14l-4 -8v-1626q0 -26 -12 -35.5t-39 -9.5h-52q-31 0 -42 8t-11 37z" />
<glyph unicode="&#xb7;" horiz-adv-x="344" d="M84 575v68q0 55 86 55q88 0 88 -55v-68q0 -34 -18.5 -48t-69.5 -15q-47 2 -66.5 15.5t-19.5 47.5z" />
<glyph unicode="&#xb8;" horiz-adv-x="509" d="M41 -299l18 43q3 9 8 10.5t17 -2.5q54 -16 113 -16q102 0 102 61q0 34 -36 51.5t-130 20.5q-9 0 -12.5 5t-2.5 10l1 5l71 136h101l-43 -76q172 -9 172 -148q0 -76 -58.5 -112.5t-154.5 -36.5q-93 0 -158 26q-16 10 -8 23z" />
<glyph unicode="&#xbb;" horiz-adv-x="890" d="M90.5 900.5q5.5 12.5 24.5 12.5h92q22 0 33 -5.5t22 -24.5l174 -289q14 -23 13.5 -35t-15.5 -37l-168 -278q-20 -37 -55 -37h-98q-15 0 -22 12.5t1 24.5l189 315l-187 318q-9 11 -3.5 23.5zM440.5 900.5q5.5 12.5 24.5 12.5h92q22 0 33 -5.5t22 -24.5l174 -289 q14 -23 13.5 -35t-15.5 -37l-168 -278q-20 -37 -55 -37h-98q-15 0 -22 12.5t1 24.5l189 315l-187 318q-9 11 -3.5 23.5z" />
<glyph unicode="&#xbf;" horiz-adv-x="903" d="M49 -78v-37q0 -160 100.5 -225.5t311.5 -65.5q74 0 179.5 7.5t164.5 19.5q20 3 20 17l-16 260q-1 11 -6 16t-9.5 5.5t-15.5 0.5h-47q-11 0 -14.5 -0.5t-9 -5.5t-9.5 -16l-30 -170q-135 -15 -226 -15q-125 0 -181 46t-56 143q0 53 22.5 101.5t58 85.5t78.5 71t85.5 66.5 t77.5 64.5t55 71.5t18 81.5q-6 85 -98 174l-70 82q-25 25 -51 5l-43 -39q-11 -10 -13 -24t9 -30l51 -65q19 -22 27 -35q22 -39 22 -70q0 -47 -49 -90q-30 -24 -77.5 -59t-73 -55t-60.5 -50.5t-53.5 -55t-37 -57.5t-26.5 -70.5t-8 -82.5zM369 913v66q0 34 19 49t69 16 q49 -1 67.5 -16t18.5 -49v-66q0 -57 -86 -57q-88 0 -88 57z" />
<glyph unicode="&#xc0;" d="M18 20v64q0 22 17 25l71 6q35 3 52 20.5t32 57.5l463 1251q7 17 13 24t20 7h105q16 0 21.5 -6t8.5 -21l467 -1251q15 -40 31 -58.5t45 -21.5l66 -6q18 -3 18 -23v-68q0 -20 -18 -20h-414q-14 0 -18.5 3.5t-4.5 16.5v66q0 22 17 25l88 6q36 3 18 55l-88 244h-612l-88 -246 q-20 -54 28 -57l70 -4q23 -3 23 -27v-57q0 -14 -5 -19.5t-18 -5.5h-389q-19 0 -19 20zM457 530h528l-266 734zM561 1745q0 14 14 31q12 18 39 6q144 -63 330 -84q52 -6 27 -82q-13 -40 -30.5 -52t-45.5 -3q-182 54 -317 153q-17 15 -17 31z" />
<glyph unicode="&#xc1;" d="M18 20v64q0 22 17 25l71 6q35 3 52 20.5t32 57.5l463 1251q7 17 13 24t20 7h105q16 0 21.5 -6t8.5 -21l467 -1251q15 -40 31 -58.5t45 -21.5l66 -6q18 -3 18 -23v-68q0 -20 -18 -20h-414q-14 0 -18.5 3.5t-4.5 16.5v66q0 22 17 25l88 6q36 3 18 55l-88 244h-612l-88 -246 q-20 -54 28 -57l70 -4q23 -3 23 -27v-57q0 -14 -5 -19.5t-18 -5.5h-389q-19 0 -19 20zM457 530h528l-266 734zM526.5 1659q5.5 17 30.5 24q151 38 291 93q28 8 35 -4l16 -35q7 -16 -14 -31q-131 -89 -291 -145q-37 -15 -62 47q-11 34 -5.5 51z" />
<glyph unicode="&#xc2;" d="M18 20v64q0 22 17 25l71 6q35 3 52 20.5t32 57.5l463 1251q7 17 13 24t20 7h105q16 0 21.5 -6t8.5 -21l467 -1251q15 -40 31 -58.5t45 -21.5l66 -6q18 -3 18 -23v-68q0 -20 -18 -20h-414q-14 0 -18.5 3.5t-4.5 16.5v66q0 22 17 25l88 6q36 3 18 55l-88 244h-612l-88 -246 q-20 -54 28 -57l70 -4q23 -3 23 -27v-57q0 -14 -5 -19.5t-18 -5.5h-389q-19 0 -19 20zM457 530h528l-266 734zM469.5 1607.5q2.5 9.5 24.5 22.5l211 127q20 8 28 8q9 0 29 -8l211 -127q20 -13 22.5 -22.5t-8.5 -24.5q-15 -17 -27 -19t-38 9l-189 63l-190 -63q-25 -11 -38 -9 t-26 19q-12 15 -9.5 24.5z" />
<glyph unicode="&#xc3;" d="M18 20v64q0 22 17 25l71 6q35 3 52 20.5t32 57.5l463 1251q7 17 13 24t20 7h105q16 0 21.5 -6t8.5 -21l467 -1251q15 -40 31 -58.5t45 -21.5l66 -6q18 -3 18 -23v-68q0 -20 -18 -20h-414q-14 0 -18.5 3.5t-4.5 16.5v66q0 22 17 25l88 6q36 3 18 55l-88 244h-612l-88 -246 q-20 -54 28 -57l70 -4q23 -3 23 -27v-57q0 -14 -5 -19.5t-18 -5.5h-389q-19 0 -19 20zM457 530h528l-266 734zM500 1618q-20 14 6 47q60 82 133 82q43 0 106 -34t97 -34q35 0 67 37q19 24 39 8l35 -43q21 -15 0 -41q-63 -88 -147 -88q-37 0 -98 34t-97 34q-41 0 -76 -43 q-16 -16 -35 -2z" />
<glyph unicode="&#xc4;" d="M18 20v64q0 22 17 25l71 6q35 3 52 20.5t32 57.5l463 1251q7 17 13 24t20 7h105q16 0 21.5 -6t8.5 -21l467 -1251q15 -40 31 -58.5t45 -21.5l66 -6q18 -3 18 -23v-68q0 -20 -18 -20h-414q-14 0 -18.5 3.5t-4.5 16.5v66q0 22 17 25l88 6q36 3 18 55l-88 244h-612l-88 -246 q-20 -54 28 -57l70 -4q23 -3 23 -27v-57q0 -14 -5 -19.5t-18 -5.5h-389q-19 0 -19 20zM457 530h528l-266 734zM500 1608v65q0 18 9 29.5t26.5 15.5t29.5 5t33 1q35 0 47 -15.5t12 -45.5v-66q0 -17 -7 -27t-23.5 -14t-29 -5t-38.5 -1q-35 0 -47 14t-12 44zM827 1608v65 q0 15 7 25t15.5 15t24.5 7.5t25.5 3t26.5 0.5q36 0 47.5 -15t11.5 -46v-66q0 -17 -7 -27t-23 -14t-28.5 -5t-37.5 -1q-37 0 -49.5 14.5t-12.5 43.5z" />
<glyph unicode="&#xc5;" d="M18 20v64q0 22 17 25l71 6q35 3 52 20.5t32 57.5l463 1251q7 17 13 24t20 7h105q16 0 21.5 -6t8.5 -21l467 -1251q15 -40 31 -58.5t45 -21.5l66 -6q18 -3 18 -23v-68q0 -20 -18 -20h-414q-14 0 -18.5 3.5t-4.5 16.5v66q0 22 17 25l88 6q36 3 18 55l-88 244h-612l-88 -246 q-20 -54 28 -57l70 -4q23 -3 23 -27v-57q0 -14 -5 -19.5t-18 -5.5h-389q-19 0 -19 20zM457 530h528l-266 734zM545 1696v63q0 73 47.5 107.5t146.5 34.5t146 -33.5t47 -108.5v-63q0 -75 -47.5 -108.5t-147.5 -33.5q-101 0 -146.5 33.5t-45.5 108.5zM649 1700q0 -31 21.5 -43 t66.5 -12t67.5 12t22.5 43v55q0 57 -88 57q-90 0 -90 -57v-55z" />
<glyph unicode="&#xc6;" horiz-adv-x="2037" d="M10 20v64q0 22 17 25l71 6q9 1 17.5 3t14 4t12.5 8t10 8t9.5 12t8 12t9 15t9.5 16l822 1275v-2q3 9 18 9h838q29 0 26 -31l-16 -303q-1 -18 -9 -23.5t-24 -5.5h-57q-16 0 -22 5.5t-9 23.5l-16 180q-3 11 -9 15.5t-22 4.5l-532 13v-543h495q20 0 27.5 -7.5t7.5 -27.5v-61 q0 -20 -8.5 -27.5t-32.5 -7.5h-489v-557l544 10q32 0 41 27l43 196q6 29 29 29h68q15 0 21 -5.5t5 -23.5l-24 -325q-2 -16 -6.5 -23.5t-18.5 -7.5h-991q-23 0 -23 20v68q0 22 21 25l67 6q35 3 45.5 12.5t10.5 36.5v242h-527l-155 -240q-14 -23 -8 -39.5t30 -17.5l72 -4 q20 -3 20 -27v-57q0 -14 -4.5 -19.5t-17.5 -5.5h-389q-19 0 -19 20zM557 524h451v688z" />
<glyph unicode="&#xc7;" horiz-adv-x="1347" d="M193 547v422q0 243 143 380.5t422 137.5q300 0 434 -43q16 -5 16 -23l-16 -282q-1 -18 -10 -23.5t-25 -5.5h-55q-30 0 -33 29l-22 196q-121 23 -289 23q-85 0 -152 -21.5t-110.5 -58t-72 -87t-40.5 -104.5t-12 -114l2 -428q0 -108 20.5 -183.5t69.5 -132.5t135.5 -84.5 t214.5 -27.5q160 0 393 37q21 3 29 -3t8 -28v-57q0 -25 -7 -35.5t-34 -16.5q-170 -31 -371 -34l-24 -46q172 -9 172 -147q0 -76 -58.5 -112.5t-154.5 -36.5q-93 0 -158 26q-16 10 -8 23l18 43q3 9 8 10.5t17 -2.5q57 -17 113 -17q102 0 102 62q0 34 -36 51.5t-130 20.5 q-9 0 -12.5 5t-2.5 10l1 5l55 107q-129 5 -223.5 33.5t-155 74t-97 116.5t-50.5 152t-14 189z" />
<glyph unicode="&#xc8;" horiz-adv-x="1263" d="M115 20v68q0 22 20 25l70 6q33 3 43 12.5t10 36.5v1139q0 26 -10 36t-43 13l-68 6q-22 3 -22 24v68q0 21 20 21h957q16 0 21 -7t5 -24l-16 -303q-1 -18 -9 -23.5t-24 -5.5h-57q-16 0 -23 5.5t-8 23.5l-18 180q-2 11 -7.5 15.5t-21.5 4.5l-506 13v-543h469q20 0 27.5 -7.5 t7.5 -27.5v-61q0 -20 -8.5 -27.5t-32.5 -7.5h-463v-557l516 10q35 0 41 27l45 196q6 29 29 29h67q15 0 21.5 -6t5.5 -23l-25 -325q-1 -11 -2.5 -16.5t-7 -10t-14.5 -4.5h-965q-24 0 -24 20zM483 1741q0 12 15 31q12 18 39 6q145 -63 329 -84q52 -6 27 -82q-13 -41 -30.5 -53 t-45.5 -3q-180 54 -317 154q-17 15 -17 31z" />
<glyph unicode="&#xc9;" horiz-adv-x="1263" d="M115 20v68q0 22 20 25l70 6q33 3 43 12.5t10 36.5v1139q0 26 -10 36t-43 13l-68 6q-22 3 -22 24v68q0 21 20 21h957q16 0 21 -7t5 -24l-16 -303q-1 -18 -9 -23.5t-24 -5.5h-57q-16 0 -23 5.5t-8 23.5l-18 180q-2 11 -7.5 15.5t-21.5 4.5l-506 13v-543h469q20 0 27.5 -7.5 t7.5 -27.5v-61q0 -20 -8.5 -27.5t-32.5 -7.5h-463v-557l516 10q35 0 41 27l45 196q6 29 29 29h67q15 0 21.5 -6t5.5 -23l-25 -325q-1 -11 -2.5 -16.5t-7 -10t-14.5 -4.5h-965q-24 0 -24 20zM465.5 1655q5.5 17 30.5 24q148 37 290 93q27 8 35 -5l17 -34q6 -16 -15 -31 q-134 -91 -291 -146q-19 -8 -33.5 3.5t-27.5 44.5q-11 34 -5.5 51z" />
<glyph unicode="&#xca;" horiz-adv-x="1263" d="M115 20v68q0 22 20 25l70 6q33 3 43 12.5t10 36.5v1139q0 26 -10 36t-43 13l-68 6q-22 3 -22 24v68q0 21 20 21h957q16 0 21 -7t5 -24l-16 -303q-1 -18 -9 -23.5t-24 -5.5h-57q-16 0 -23 5.5t-8 23.5l-18 180q-2 11 -7.5 15.5t-21.5 4.5l-506 13v-543h469q20 0 27.5 -7.5 t7.5 -27.5v-61q0 -20 -8.5 -27.5t-32.5 -7.5h-463v-557l516 10q35 0 41 27l45 196q6 29 29 29h67q15 0 21.5 -6t5.5 -23l-25 -325q-1 -11 -2.5 -16.5t-7 -10t-14.5 -4.5h-965q-24 0 -24 20zM402.5 1596.5q-1.5 6.5 3.5 13.5t20 16l211 127q20 8 29 8q8 0 28 -8l211 -127 q20 -13 23 -22.5t-8 -24.5q-15 -17 -27.5 -19t-38.5 9l-188 63l-191 -63q-25 -11 -37.5 -9t-25.5 19q-8 11 -9.5 17.5z" />
<glyph unicode="&#xcb;" horiz-adv-x="1263" d="M115 20v68q0 22 20 25l70 6q33 3 43 12.5t10 36.5v1139q0 26 -10 36t-43 13l-68 6q-22 3 -22 24v68q0 21 20 21h957q16 0 21 -7t5 -24l-16 -303q-1 -18 -9 -23.5t-24 -5.5h-57q-16 0 -23 5.5t-8 23.5l-18 180q-2 11 -7.5 15.5t-21.5 4.5l-506 13v-543h469q20 0 27.5 -7.5 t7.5 -27.5v-61q0 -20 -8.5 -27.5t-32.5 -7.5h-463v-557l516 10q35 0 41 27l45 196q6 29 29 29h67q15 0 21.5 -6t5.5 -23l-25 -325q-1 -11 -2.5 -16.5t-7 -10t-14.5 -4.5h-965q-24 0 -24 20zM422 1604v65q0 18 9 29.5t26.5 15.5t29.5 5t33 1q35 0 47.5 -15.5t12.5 -45.5v-66 q0 -17 -7 -27t-23.5 -14t-29.5 -5t-39 -1q-35 0 -47 14t-12 44zM750 1604v65q0 24 18 36t34.5 13.5t45.5 1.5q36 0 47.5 -15t11.5 -46v-66q0 -17 -7 -27t-23 -14t-28.5 -5t-37.5 -1q-37 0 -49 14t-12 44z" />
<glyph unicode="&#xcc;" horiz-adv-x="686" d="M115 23v63q0 14 4.5 18.5t15.5 6.5l70 6q33 3 43 18.5t10 57.5v1089q0 42 -10 57.5t-43 18.5l-51 6q-21 3 -21 25v65q0 21 23 21h370q25 0 25 -21v-65q0 -22 -21 -25l-49 -6q-35 -4 -44 -19.5t-9 -62.5v-1077q0 -47 9 -63t44 -19l70 -6q12 -1 16 -7t4 -18v-61 q0 -25 -24 -25h-408q-24 0 -24 23zM164 1741q0 13 14 31q12 18 39 6q144 -63 330 -84q51 -6 26 -82q-13 -41 -30 -53t-45 -3q-182 54 -318 154q-16 14 -16 31z" />
<glyph unicode="&#xcd;" horiz-adv-x="686" d="M115 23v63q0 14 4.5 18.5t15.5 6.5l70 6q33 3 43 18.5t10 57.5v1089q0 42 -10 57.5t-43 18.5l-51 6q-21 3 -21 25v65q0 21 23 21h370q25 0 25 -21v-65q0 -22 -21 -25l-49 -6q-35 -4 -44 -19.5t-9 -62.5v-1077q0 -47 9 -63t44 -19l70 -6q12 -1 16 -7t4 -18v-61 q0 -25 -24 -25h-408q-24 0 -24 23zM146.5 1655q5.5 17 29.5 24q151 38 291 93q27 8 35 -5l16 -34q7 -16 -14 -31q-134 -91 -291 -146q-19 -8 -33.5 3.5t-27.5 44.5q-11 34 -5.5 51z" />
<glyph unicode="&#xce;" horiz-adv-x="686" d="M82.5 1596.5q-1.5 6.5 3.5 13.5t20 16l211 127q20 8 29 8t29 -8l211 -127q20 -13 22.5 -22.5t-8.5 -24.5q-15 -17 -27 -19t-38 9l-189 63l-190 -63q-25 -11 -38 -9t-26 19q-8 11 -9.5 17.5zM115 23v63q0 14 4.5 18.5t15.5 6.5l70 6q33 3 43 18.5t10 57.5v1089 q0 42 -10 57.5t-43 18.5l-51 6q-21 3 -21 25v65q0 21 23 21h370q25 0 25 -21v-65q0 -22 -21 -25l-49 -6q-35 -4 -44 -19.5t-9 -62.5v-1077q0 -47 9 -63t44 -19l70 -6q12 -1 16 -7t4 -18v-61q0 -25 -24 -25h-408q-24 0 -24 23z" />
<glyph unicode="&#xcf;" horiz-adv-x="686" d="M102 1604v65q0 18 9 29.5t27 15.5t30 5t33 1q35 0 47 -15.5t12 -45.5v-66q0 -17 -7 -27t-23.5 -14t-29 -5t-38.5 -1q-36 0 -48 14.5t-12 43.5zM115 23v63q0 14 4.5 18.5t15.5 6.5l70 6q33 3 43 18.5t10 57.5v1089q0 42 -10 57.5t-43 18.5l-51 6q-21 3 -21 25v65 q0 21 23 21h370q25 0 25 -21v-65q0 -22 -21 -25l-49 -6q-35 -4 -44 -19.5t-9 -62.5v-1077q0 -47 9 -63t44 -19l70 -6q12 -1 16 -7t4 -18v-61q0 -25 -24 -25h-408q-24 0 -24 23zM430 1604v65q0 24 18 36t34.5 13.5t45.5 1.5q36 0 48 -15.5t12 -45.5v-66q0 -17 -7 -27t-23 -14 t-28.5 -5t-37.5 -1q-37 0 -49.5 14.5t-12.5 43.5z" />
<glyph unicode="&#xd0;" horiz-adv-x="1486" d="M115 20v68q0 22 20 25l70 6q33 3 43 12.5t10 36.5v498h-106q-16 0 -22.5 3.5t-6.5 16.5v86q0 14 6.5 18.5t22.5 4.5h106v512q0 26 -10 36t-43 13l-68 6q-22 3 -22 24v68q0 21 20 21h572q145 0 255 -26.5t195 -86t129.5 -164.5t44.5 -254v-414q0 -139 -48 -243 t-134.5 -165.5t-197.5 -91.5t-246 -30h-566q-24 0 -24 20zM428 125h291q64 0 123 11.5t117 40.5t100.5 73.5t69 116t26.5 163.5v414q0 96 -24 169t-64.5 118t-101 73.5t-126 39t-147.5 10.5h-264v-559h166q16 0 23.5 -4t7.5 -17v-86q0 -14 -7 -18t-24 -4h-166v-541z" />
<glyph unicode="&#xd1;" horiz-adv-x="1564" d="M111 20v64q0 22 18 25l74 6q24 2 35.5 13t11.5 36v1190l-4 2l-107 12q-18 2 -18 25v61q0 21 20 21h162q64 0 87.5 -11.5t53.5 -54.5l750 -1100v1002q0 46 -47 49l-72 6q-22 0 -22 29v59q0 21 20 21h375q20 0 20 -21v-63q0 -22 -18 -25l-76 -6q-23 -3 -34 -13.5t-11 -35.5 v-1286q0 -25 -22 -25h-66q-15 0 -24 5.5t-23 27.5l-809 1167v-1036q0 -24 9.5 -35t37.5 -14l57 -6q21 0 21 -25v-64q0 -20 -21 -20h-358q-20 0 -20 20zM537 1618q-20 14 6 47q60 82 133 82q42 0 105.5 -34t97.5 -34q35 0 67 37q19 24 39 8l35 -43q20 -15 0 -41 q-63 -88 -148 -88q-37 0 -97.5 34t-96.5 34q-41 0 -76 -43q-16 -16 -35 -2z" />
<glyph unicode="&#xd2;" horiz-adv-x="1540" d="M170 559v359q0 57 2 99.5t9.5 94t20 89t35 79t53.5 70.5t76 56.5t102.5 44t133.5 26.5t168 10q118 0 210.5 -16.5t155.5 -42.5t108 -70t70 -88t39 -107.5t17.5 -116.5t3.5 -128v-359q0 -59 -2 -103t-9.5 -96t-20 -90.5t-35 -80.5t-54 -71t-77 -57t-103 -44.5 t-134.5 -26.5t-169 -10t-168 10t-133.5 26.5t-102.5 44.5t-76 57t-53.5 71t-35 80.5t-20 90.5t-9.5 96t-2 103zM346 557q0 -90 7.5 -150t32.5 -120t70 -94.5t123.5 -56t190.5 -21.5q82 0 145.5 11t108.5 30t77 50.5t50.5 65t29 82.5t14 94.5t3.5 108.5v363q0 61 -3 104.5 t-13.5 91.5t-29 81t-50.5 64.5t-77 50t-109 29.5t-146 11q-81 0 -144 -11t-107.5 -29.5t-76 -50t-50 -64.5t-29 -80.5t-14 -92t-3.5 -104.5v-363zM594 1741q0 13 14 31q12 18 39 6q144 -63 330 -84q52 -6 27 -82q-13 -41 -30.5 -53t-45.5 -3q-182 54 -318 154q-16 14 -16 31 z" />
<glyph unicode="&#xd3;" horiz-adv-x="1540" d="M170 559v359q0 57 2 99.5t9.5 94t20 89t35 79t53.5 70.5t76 56.5t102.5 44t133.5 26.5t168 10q118 0 210.5 -16.5t155.5 -42.5t108 -70t70 -88t39 -107.5t17.5 -116.5t3.5 -128v-359q0 -59 -2 -103t-9.5 -96t-20 -90.5t-35 -80.5t-54 -71t-77 -57t-103 -44.5 t-134.5 -26.5t-169 -10t-168 10t-133.5 26.5t-102.5 44.5t-76 57t-53.5 71t-35 80.5t-20 90.5t-9.5 96t-2 103zM346 557q0 -90 7.5 -150t32.5 -120t70 -94.5t123.5 -56t190.5 -21.5q82 0 145.5 11t108.5 30t77 50.5t50.5 65t29 82.5t14 94.5t3.5 108.5v363q0 61 -3 104.5 t-13.5 91.5t-29 81t-50.5 64.5t-77 50t-109 29.5t-146 11q-81 0 -144 -11t-107.5 -29.5t-76 -50t-50 -64.5t-29 -80.5t-14 -92t-3.5 -104.5v-363zM574.5 1655q5.5 17 29.5 24q151 38 291 93q27 8 35 -5l16 -34q7 -16 -14 -31q-134 -91 -291 -146q-19 -8 -33.5 3.5 t-27.5 44.5q-11 34 -5.5 51z" />
<glyph unicode="&#xd4;" horiz-adv-x="1540" d="M170 559v359q0 57 2 99.5t9.5 94t20 89t35 79t53.5 70.5t76 56.5t102.5 44t133.5 26.5t168 10q118 0 210.5 -16.5t155.5 -42.5t108 -70t70 -88t39 -107.5t17.5 -116.5t3.5 -128v-359q0 -59 -2 -103t-9.5 -96t-20 -90.5t-35 -80.5t-54 -71t-77 -57t-103 -44.5 t-134.5 -26.5t-169 -10t-168 10t-133.5 26.5t-102.5 44.5t-76 57t-53.5 71t-35 80.5t-20 90.5t-9.5 96t-2 103zM346 557q0 -90 7.5 -150t32.5 -120t70 -94.5t123.5 -56t190.5 -21.5q82 0 145.5 11t108.5 30t77 50.5t50.5 65t29 82.5t14 94.5t3.5 108.5v363q0 61 -3 104.5 t-13.5 91.5t-29 81t-50.5 64.5t-77 50t-109 29.5t-146 11q-81 0 -144 -11t-107.5 -29.5t-76 -50t-50 -64.5t-29 -80.5t-14 -92t-3.5 -104.5v-363zM512.5 1603.5q2.5 9.5 24.5 22.5l211 127q20 8 28 8q9 0 29 -8l211 -127q20 -13 22.5 -22.5t-8.5 -24.5q-15 -17 -27 -19 t-38 9l-189 63l-190 -63q-25 -11 -38 -9t-26 19q-12 15 -9.5 24.5z" />
<glyph unicode="&#xd5;" horiz-adv-x="1540" d="M170 559v359q0 57 2 99.5t9.5 94t20 89t35 79t53.5 70.5t76 56.5t102.5 44t133.5 26.5t168 10q118 0 210.5 -16.5t155.5 -42.5t108 -70t70 -88t39 -107.5t17.5 -116.5t3.5 -128v-359q0 -59 -2 -103t-9.5 -96t-20 -90.5t-35 -80.5t-54 -71t-77 -57t-103 -44.5 t-134.5 -26.5t-169 -10t-168 10t-133.5 26.5t-102.5 44.5t-76 57t-53.5 71t-35 80.5t-20 90.5t-9.5 96t-2 103zM346 557q0 -90 7.5 -150t32.5 -120t70 -94.5t123.5 -56t190.5 -21.5q82 0 145.5 11t108.5 30t77 50.5t50.5 65t29 82.5t14 94.5t3.5 108.5v363q0 61 -3 104.5 t-13.5 91.5t-29 81t-50.5 64.5t-77 50t-109 29.5t-146 11q-81 0 -144 -11t-107.5 -29.5t-76 -50t-50 -64.5t-29 -80.5t-14 -92t-3.5 -104.5v-363zM530 1614q-19 14 7 47q60 82 133 82q42 0 105 -34t97 -34q36 0 68 37q19 24 39 8l35 -43q20 -15 0 -41q-63 -88 -148 -88 q-37 0 -97.5 34t-96.5 34q-41 0 -76 -43q-16 -16 -35 -2z" />
<glyph unicode="&#xd6;" horiz-adv-x="1540" d="M170 559v359q0 57 2 99.5t9.5 94t20 89t35 79t53.5 70.5t76 56.5t102.5 44t133.5 26.5t168 10q118 0 210.5 -16.5t155.5 -42.5t108 -70t70 -88t39 -107.5t17.5 -116.5t3.5 -128v-359q0 -59 -2 -103t-9.5 -96t-20 -90.5t-35 -80.5t-54 -71t-77 -57t-103 -44.5 t-134.5 -26.5t-169 -10t-168 10t-133.5 26.5t-102.5 44.5t-76 57t-53.5 71t-35 80.5t-20 90.5t-9.5 96t-2 103zM346 557q0 -90 7.5 -150t32.5 -120t70 -94.5t123.5 -56t190.5 -21.5q82 0 145.5 11t108.5 30t77 50.5t50.5 65t29 82.5t14 94.5t3.5 108.5v363q0 61 -3 104.5 t-13.5 91.5t-29 81t-50.5 64.5t-77 50t-109 29.5t-146 11q-81 0 -144 -11t-107.5 -29.5t-76 -50t-50 -64.5t-29 -80.5t-14 -92t-3.5 -104.5v-363zM532 1604v65q0 18 9 29.5t27 15.5t30 5t33 1q35 0 47 -15.5t12 -45.5v-66q0 -17 -7 -27t-23.5 -14t-29 -5t-38.5 -1 q-36 0 -48 14.5t-12 43.5zM860 1604v65q0 24 18 36t34.5 13.5t45.5 1.5q36 0 48 -15.5t12 -45.5v-66q0 -17 -7 -27t-23 -14t-28.5 -5t-37.5 -1q-37 0 -49.5 14.5t-12.5 43.5z" />
<glyph unicode="&#xd7;" horiz-adv-x="964" d="M181 306.5q0 12.5 9 21.5l216 215l-209 209q-11 9 -11 21.5t11 21.5l41 43q22 22 45 0l209 -209l223 223q9 9 21.5 9t21.5 -9l43 -43q19 -23 0 -45l-223 -221l208 -209q10 -9 10 -21.5t-10 -21.5l-43 -43q-23 -20 -43 0l-208 209l-216 -215q-22 -22 -45 0l-41 43 q-9 9 -9 21.5z" />
<glyph unicode="&#xd8;" horiz-adv-x="1540" d="M170 559v359q0 57 2 99.5t9.5 94t20 89t35 79t53.5 70.5t76 56.5t102.5 44t133.5 26.5t168 10q165 0 283 -31l51 103q4 12 20 15t31 -5l27 -10q15 -8 22.5 -21.5t3.5 -26.5l-49 -96q57 -29 97.5 -71t63 -86.5t35 -105t16 -112t3.5 -122.5v-359q0 -59 -2 -103t-9.5 -96 t-20 -90.5t-35 -80.5t-54 -71t-77 -57t-103 -44.5t-134.5 -26.5t-169 -10q-189 0 -311 38l-56 -110q-6 -12 -21 -15t-30 5l-28 10q-15 6 -23 19.5t-2 23.5l57 115q-49 30 -84.5 72t-55 85.5t-30 103.5t-13.5 110.5t-3 121.5zM346 557q0 -124 17 -206t67 -136l557 1110 q-96 27 -217 27q-81 0 -144 -11t-107.5 -29.5t-76 -50t-50 -64.5t-29 -80.5t-14 -92t-3.5 -104.5v-363zM526 152q87 -37 244 -37q82 0 145.5 11t108.5 30t77 50.5t50.5 65t29 82.5t14 94.5t3.5 108.5v363q0 131 -22.5 215t-88.5 137z" />
<glyph unicode="&#xd9;" horiz-adv-x="1488" d="M88 1384v70q0 7 5.5 14t15.5 7h253q21 0 21 -21v-960q0 -218 74 -301.5t268 -83.5q94 0 192 18t162 47v1108q0 42 -10 57.5t-43 18.5l-51 6q-21 3 -21 25v65q0 21 23 21h371q24 0 24 -21v-65q0 -22 -20 -25l-49 -6q-36 -4 -45 -19.5t-9 -62.5v-1106q0 -25 9 -35t38 -14 l60 -6q18 -3 18 -25v-70q0 -7 -5 -13.5t-15 -6.5h-254q-21 0 -21 20v33q-72 -34 -183 -53.5t-204 -19.5q-125 0 -212 26t-148.5 85.5t-90 158t-28.5 242.5v813q0 25 -9 35t-38 14l-60 6q-18 3 -18 24zM518 1741q0 13 14 31q12 18 39 6q144 -63 330 -84q52 -6 27 -82 q-13 -41 -30.5 -53t-45.5 -3q-180 54 -317 154q-17 15 -17 31z" />
<glyph unicode="&#xda;" horiz-adv-x="1488" d="M88 1384v70q0 7 5.5 14t15.5 7h253q21 0 21 -21v-960q0 -218 74 -301.5t268 -83.5q94 0 192 18t162 47v1108q0 42 -10 57.5t-43 18.5l-51 6q-21 3 -21 25v65q0 21 23 21h371q24 0 24 -21v-65q0 -22 -20 -25l-49 -6q-36 -4 -45 -19.5t-9 -62.5v-1106q0 -25 9 -35t38 -14 l60 -6q18 -3 18 -25v-70q0 -7 -5 -13.5t-15 -6.5h-254q-21 0 -21 20v33q-72 -34 -183 -53.5t-204 -19.5q-125 0 -212 26t-148.5 85.5t-90 158t-28.5 242.5v813q0 25 -9 35t-38 14l-60 6q-18 3 -18 24zM500.5 1655q5.5 17 29.5 24q151 38 291 93q27 8 35 -5l16 -34 q7 -16 -14 -31q-134 -91 -291 -146q-19 -8 -33.5 3.5t-27.5 44.5q-11 34 -5.5 51z" />
<glyph unicode="&#xdb;" horiz-adv-x="1488" d="M88 1384v70q0 7 5.5 14t15.5 7h253q21 0 21 -21v-960q0 -218 74 -301.5t268 -83.5q94 0 192 18t162 47v1108q0 42 -10 57.5t-43 18.5l-51 6q-21 3 -21 25v65q0 21 23 21h371q24 0 24 -21v-65q0 -22 -20 -25l-49 -6q-36 -4 -45 -19.5t-9 -62.5v-1106q0 -25 9 -35t38 -14 l60 -6q18 -3 18 -25v-70q0 -7 -5 -13.5t-15 -6.5h-254q-21 0 -21 20v33q-72 -34 -183 -53.5t-204 -19.5q-125 0 -212 26t-148.5 85.5t-90 158t-28.5 242.5v813q0 25 -9 35t-38 14l-60 6q-18 3 -18 24zM436.5 1603.5q2.5 9.5 24.5 22.5l211 127q20 8 28 8q9 0 29 -8l211 -127 q20 -13 22.5 -22.5t-8.5 -24.5q-15 -17 -27 -19t-38 9l-189 63l-190 -63q-25 -11 -38 -9t-26 19q-12 15 -9.5 24.5z" />
<glyph unicode="&#xdc;" horiz-adv-x="1488" d="M88 1384v70q0 7 5.5 14t15.5 7h253q21 0 21 -21v-960q0 -218 74 -301.5t268 -83.5q94 0 192 18t162 47v1108q0 42 -10 57.5t-43 18.5l-51 6q-21 3 -21 25v65q0 21 23 21h371q24 0 24 -21v-65q0 -22 -20 -25l-49 -6q-36 -4 -45 -19.5t-9 -62.5v-1106q0 -25 9 -35t38 -14 l60 -6q18 -3 18 -25v-70q0 -7 -5 -13.5t-15 -6.5h-254q-21 0 -21 20v33q-72 -34 -183 -53.5t-204 -19.5q-125 0 -212 26t-148.5 85.5t-90 158t-28.5 242.5v813q0 25 -9 35t-38 14l-60 6q-18 3 -18 24zM457 1604v65q0 18 9 29.5t26.5 15.5t29.5 5t33 1q35 0 47 -15.5 t12 -45.5v-66q0 -17 -7 -27t-23.5 -14t-29 -5t-38.5 -1q-35 0 -47 14t-12 44zM784 1604v65q0 15 7 25t15.5 15t24.5 7.5t25.5 3t26.5 0.5q36 0 47.5 -15t11.5 -46v-66q0 -17 -7 -27t-23 -14t-28.5 -5t-37.5 -1q-37 0 -49.5 14.5t-12.5 43.5z" />
<glyph unicode="&#xdd;" horiz-adv-x="1349" d="M55 1389v63q0 23 23 23h391q18 0 18 -23v-61q0 -20 -18 -23l-63 -6q-44 -6 -19 -55l311 -590l328 581q19 32 15.5 46.5t-33.5 17.5l-45 4q-12 2 -16.5 7t-4.5 18v63q0 21 21 21h331q21 0 21 -21v-72q0 -9 -7 -14.5t-16 -5.5l-49 -6q-24 -3 -36.5 -14.5t-28.5 -41.5 l-412 -712v-393q0 -42 10 -57.5t47 -18.5l80 -8q14 -2 19.5 -7t5.5 -18v-66q0 -20 -23 -20h-450q-21 0 -21 18v72q0 18 21 21l86 8q36 3 46.5 17.5t10.5 58.5v380l-393 717q-22 39 -36 49.5t-50 16.5l-45 6q-19 3 -19 25zM559.5 1657q5.5 17 30.5 24q151 38 291 93 q26 8 34 -5l17 -34q7 -16 -14 -31q-131 -89 -291 -145q-37 -15 -62 47q-11 34 -5.5 51z" />
<glyph unicode="&#xde;" horiz-adv-x="1214" d="M115 23v63q0 14 4.5 18.5t15.5 6.5l70 6q33 3 43 18.5t10 57.5v1089q0 42 -10 57.5t-43 18.5l-51 6q-21 3 -21 25v65q0 21 23 21h370q25 0 25 -21v-65q0 -22 -21 -25l-49 -6q-35 -4 -44 -19.5t-9 -62.5v-64h201q101 0 179 -11.5t145.5 -40.5t111 -75t68 -117.5 t24.5 -166.5v-68q0 -119 -37 -201t-109 -128t-164 -65.5t-216 -19.5h-203v-120q0 -47 9 -63t44 -19l70 -6q12 -1 16 -7t4 -18v-61q0 -25 -24 -25h-408q-24 0 -24 23zM428 444h193q184 0 273 69t89 226v52q0 165 -86.5 229.5t-275.5 64.5h-193v-641z" />
<glyph unicode="&#xdf;" horiz-adv-x="1396" d="M102 928v67q0 27 19 27h106v227q0 84 19.5 140.5t69.5 99t140 62.5t226 20q129 0 214 -20t132 -62.5t65.5 -99t18.5 -140.5v-26q0 -90 -15.5 -148.5t-49 -91t-78 -45t-111.5 -12.5q-54 0 -76 -28.5t-22 -109.5q0 -82 25 -114.5t100 -61.5l260 -96q131 -47 131 -237 q0 -85 -24.5 -143t-73.5 -89.5t-111 -45t-147 -13.5q-71 0 -150 8.5t-117 21.5q-16 4 -21 11t-5 20v78q0 29 28 23q5 -1 31.5 -7.5t37.5 -8.5t37.5 -7.5t44.5 -7.5t43.5 -4t49.5 -2q110 0 164.5 34t54.5 117q0 66 -31.5 100.5t-99.5 61.5l-250 94q-67 24 -99 78t-32 176 q0 82 14.5 136t45 83t70 40t98.5 11q71 0 103 36.5t32 142.5v30q0 45 -11.5 77.5t-41.5 61t-88.5 42.5t-145.5 14q-71 0 -123.5 -10t-84 -27t-50 -43t-25 -53t-6.5 -62v-1085q0 -26 11.5 -36t46.5 -13l92 -10q18 -3 18 -25v-61q0 -23 -22 -23h-410q-20 0 -20 23v61 q0 22 18 25l39 6q39 6 50 16t11 37v733h-104q-21 0 -21 27z" />
<glyph unicode="&#xe0;" horiz-adv-x="1161" d="M129 258v53q0 48 7.5 86t30.5 77t61 65t104 42.5t155 16.5q105 0 295 -10v119q0 131 -43 174t-176 43q-115 0 -229 -15l-25 -159q-2 -18 -6.5 -23.5t-21.5 -5.5h-54q-17 0 -21.5 5.5t-6.5 23.5l-15 215q-5 19 -2 34.5t23 20.5q29 9 141 16.5t221 7.5q57 0 97 -2.5t83 -11 t71.5 -23.5t55 -40t41.5 -61t24 -87t9 -117v-524q0 -42 15.5 -57t48.5 -15q12 0 41 5q26 6 26 -19v-74q0 -18 -22 -24q-33 -10 -101 -10q-113 0 -153 69q-150 -73 -324 -73q-88 0 -152.5 15.5t-102 39.5t-59.5 62t-29 75t-7 86zM297 256q0 -86 48.5 -120t160.5 -34 q134 0 276 66v293q-273 10 -282 10q-106 0 -154.5 -39.5t-48.5 -118.5v-57zM373 1423q0 13 14 31q12 18 39 6q144 -63 330 -84q51 -6 26 -82q-13 -41 -30 -52.5t-45 -2.5q-182 54 -318 154q-16 14 -16 30z" />
<glyph unicode="&#xe1;" horiz-adv-x="1161" d="M129 258v53q0 48 7.5 86t30.5 77t61 65t104 42.5t155 16.5q105 0 295 -10v119q0 131 -43 174t-176 43q-115 0 -229 -15l-25 -159q-2 -18 -6.5 -23.5t-21.5 -5.5h-54q-17 0 -21.5 5.5t-6.5 23.5l-15 215q-5 19 -2 34.5t23 20.5q29 9 141 16.5t221 7.5q57 0 97 -2.5t83 -11 t71.5 -23.5t55 -40t41.5 -61t24 -87t9 -117v-524q0 -42 15.5 -57t48.5 -15q12 0 41 5q26 6 26 -19v-74q0 -18 -22 -24q-33 -10 -101 -10q-113 0 -153 69q-150 -73 -324 -73q-88 0 -152.5 15.5t-102 39.5t-59.5 62t-29 75t-7 86zM297 256q0 -86 48.5 -120t160.5 -34 q134 0 276 66v293q-273 10 -282 10q-106 0 -154.5 -39.5t-48.5 -118.5v-57zM354.5 1337.5q5.5 17.5 30.5 24.5q158 39 291 92q28 8 35 -4l16 -35q7 -16 -14 -31q-131 -89 -291 -145q-37 -15 -62 47q-11 34 -5.5 51.5z" />
<glyph unicode="&#xe2;" horiz-adv-x="1161" d="M129 258v53q0 48 7.5 86t30.5 77t61 65t104 42.5t155 16.5q105 0 295 -10v119q0 131 -43 174t-176 43q-115 0 -229 -15l-25 -159q-2 -18 -6.5 -23.5t-21.5 -5.5h-54q-17 0 -21.5 5.5t-6.5 23.5l-15 215q-5 19 -2 34.5t23 20.5q29 9 141 16.5t221 7.5q57 0 97 -2.5t83 -11 t71.5 -23.5t55 -40t41.5 -61t24 -87t9 -117v-524q0 -42 15.5 -57t48.5 -15q12 0 41 5q26 6 26 -19v-74q0 -18 -22 -24q-33 -10 -101 -10q-113 0 -153 69q-150 -73 -324 -73q-88 0 -152.5 15.5t-102 39.5t-59.5 62t-29 75t-7 86zM291.5 1279.5q-1.5 6.5 3.5 13.5t20 16 l211 127q20 8 29 8t29 -8l211 -127q20 -13 22.5 -22.5t-8.5 -24.5q-15 -17 -27.5 -19t-38.5 8l-188 64l-190 -64q-25 -11 -38 -8.5t-26 19.5q-8 11 -9.5 17.5zM297 256q0 -86 48.5 -120t160.5 -34q134 0 276 66v293q-273 10 -282 10q-106 0 -154.5 -39.5t-48.5 -118.5v-57z " />
<glyph unicode="&#xe3;" horiz-adv-x="1161" d="M129 258v53q0 48 7.5 86t30.5 77t61 65t104 42.5t155 16.5q105 0 295 -10v119q0 131 -43 174t-176 43q-115 0 -229 -15l-25 -159q-2 -18 -6.5 -23.5t-21.5 -5.5h-54q-17 0 -21.5 5.5t-6.5 23.5l-15 215q-5 19 -2 34.5t23 20.5q29 9 141 16.5t221 7.5q57 0 97 -2.5t83 -11 t71.5 -23.5t55 -40t41.5 -61t24 -87t9 -117v-524q0 -42 15.5 -57t48.5 -15q12 0 41 5q26 6 26 -19v-74q0 -18 -22 -24q-33 -10 -101 -10q-113 0 -153 69q-150 -73 -324 -73q-88 0 -152.5 15.5t-102 39.5t-59.5 62t-29 75t-7 86zM297 256q0 -86 48.5 -120t160.5 -34 q134 0 276 66v293q-273 10 -282 10q-106 0 -154.5 -39.5t-48.5 -118.5v-57zM311 1296q-20 14 6 47q60 82 134 82q43 0 106 -33.5t96 -33.5q36 0 68 37q19 24 39 8l35 -43q21 -15 0 -41q-63 -88 -148 -88q-37 0 -97.5 33.5t-96.5 33.5q-41 0 -76 -43q-16 -16 -35 -2z" />
<glyph unicode="&#xe4;" horiz-adv-x="1161" d="M129 258v53q0 48 7.5 86t30.5 77t61 65t104 42.5t155 16.5q105 0 295 -10v119q0 131 -43 174t-176 43q-115 0 -229 -15l-25 -159q-2 -18 -6.5 -23.5t-21.5 -5.5h-54q-17 0 -21.5 5.5t-6.5 23.5l-15 215q-5 19 -2 34.5t23 20.5q29 9 141 16.5t221 7.5q57 0 97 -2.5t83 -11 t71.5 -23.5t55 -40t41.5 -61t24 -87t9 -117v-524q0 -42 15.5 -57t48.5 -15q12 0 41 5q26 6 26 -19v-74q0 -18 -22 -24q-33 -10 -101 -10q-113 0 -153 69q-150 -73 -324 -73q-88 0 -152.5 15.5t-102 39.5t-59.5 62t-29 75t-7 86zM297 256q0 -86 48.5 -120t160.5 -34 q134 0 276 66v293q-273 10 -282 10q-106 0 -154.5 -39.5t-48.5 -118.5v-57zM311 1286v66q0 18 9 29.5t27 15.5t30 5t33 1q35 0 47 -16t12 -46v-65q0 -17 -7 -27t-23.5 -14t-29 -5t-38.5 -1q-36 0 -48 14t-12 43zM639 1286v66q0 24 18 36t34.5 13.5t45.5 1.5q36 0 48 -15.5 t12 -46.5v-65q0 -17 -7 -27t-23.5 -14t-29 -5t-37.5 -1q-37 0 -49 14t-12 43z" />
<glyph unicode="&#xe5;" horiz-adv-x="1161" d="M129 258v53q0 48 7.5 86t30.5 77t61 65t104 42.5t155 16.5q105 0 295 -10v119q0 131 -43 174t-176 43q-115 0 -229 -15l-25 -159q-2 -18 -6.5 -23.5t-21.5 -5.5h-54q-17 0 -21.5 5.5t-6.5 23.5l-15 215q-5 19 -2 34.5t23 20.5q29 9 141 16.5t221 7.5q57 0 97 -2.5t83 -11 t71.5 -23.5t55 -40t41.5 -61t24 -87t9 -117v-524q0 -42 15.5 -57t48.5 -15q12 0 41 5q26 6 26 -19v-74q0 -18 -22 -24q-33 -10 -101 -10q-113 0 -153 69q-150 -73 -324 -73q-88 0 -152.5 15.5t-102 39.5t-59.5 62t-29 75t-7 86zM297 256q0 -86 48.5 -120t160.5 -34 q134 0 276 66v293q-273 10 -282 10q-106 0 -154.5 -39.5t-48.5 -118.5v-57zM377 1372v64q0 73 47.5 107t146.5 34t146 -33t47 -108v-64q0 -75 -47.5 -108t-147.5 -33q-101 0 -146.5 33t-45.5 108zM481 1376q0 -31 21.5 -43t66.5 -12t67.5 12t22.5 43v56q0 57 -88 57 q-90 0 -90 -57v-56z" />
<glyph unicode="&#xe6;" horiz-adv-x="1777" d="M129 258v53q0 48 7.5 86t30.5 77t61 65t104 42.5t155 16.5q169 0 299 -10v119q0 131 -44 174t-177 43q-115 0 -229 -15l-25 -159q-2 -18 -6.5 -23.5t-21.5 -5.5h-54q-17 0 -21.5 5.5t-6.5 23.5l-15 215q-5 19 -2 34.5t23 20.5q29 9 141 16.5t221 7.5q122 0 198 -17.5 t120 -70.5q55 50 138 69t204 19q110 0 181 -12.5t124 -46.5t76.5 -95.5t23.5 -158.5q0 -57 -7.5 -99t-21 -74.5t-40 -53.5t-57.5 -35.5t-80 -21.5t-101 -10t-127 -3h-246v-24q0 -56 4 -94.5t15.5 -75t32.5 -59t55 -40t83 -25t116 -7.5q139 0 335 36q29 5 37 1.5t8 -23.5v-70 q0 -20 -6.5 -26.5t-31.5 -12.5q-180 -34 -367 -34q-141 0 -230.5 28t-138.5 88q-183 -116 -387 -116q-88 0 -152.5 15.5t-102 39.5t-59.5 62t-29 75t-7 86zM295 256q0 -86 49 -120t162 -34q89 0 158 23.5t149 69.5q-27 80 -27 217v49q-39 1 -95 4t-98 4.5t-85 1.5 q-115 0 -164 -38.5t-49 -119.5v-57zM954 553h242q63 0 103 2t73.5 9.5t50.5 18.5t28.5 32t15 46.5t3.5 65.5q0 112 -50.5 155.5t-190.5 43.5q-159 0 -217 -58.5t-58 -228.5v-86z" />
<glyph unicode="&#xe7;" horiz-adv-x="1075" d="M133 412v229q0 200 105 301.5t333 101.5q78 0 178 -6.5t140 -17.5q16 -5 19 -11t3 -20l-18 -254q-1 -16 -7 -20t-24 -4h-55q-22 0 -25 24l-22 170q-128 15 -193 15q-138 0 -202 -75t-64 -200v-235q0 -162 68.5 -230.5t222.5 -68.5q40 0 82.5 3t82 8.5t65 9t56.5 9.5l31 6 q14 3 19.5 -4.5t5.5 -23.5v-76q0 -21 -25 -27q-45 -13 -143.5 -24.5t-190.5 -11.5h-2l-16 -31q172 -9 172 -148q0 -76 -58.5 -112.5t-154.5 -36.5q-93 0 -158 26q-16 10 -8 23l19 43q3 9 7.5 10.5t16.5 -2.5q54 -16 113 -16q102 0 102 61q0 34 -36 51.5t-130 20.5 q-9 0 -12.5 5t-2.5 10l1 5l49 95q-191 19 -267.5 124.5t-76.5 303.5z" />
<glyph unicode="&#xe8;" horiz-adv-x="1124" d="M133 412v219q0 105 21 180t56.5 120t94 70.5t120.5 34t150 8.5q110 0 181 -12.5t124.5 -46.5t77 -95.5t23.5 -158.5q0 -57 -7.5 -99t-21 -74.5t-40 -53.5t-57.5 -35.5t-80 -21.5t-101 -10t-127 -3h-246v-24q0 -56 4 -94.5t15 -75t32 -59t55 -40t83 -25t116 -7.5 q140 0 336 36q29 5 37 1.5t8 -23.5v-70q0 -20 -7 -26.5t-32 -12.5q-180 -34 -366 -34q-133 0 -220.5 25t-138 80.5t-70.5 133t-20 193.5zM301 553h242q63 0 103 2t73.5 9.5t50.5 18.5t28.5 32t15 46.5t3.5 65.5q0 112 -51 155.5t-191 43.5q-159 0 -216.5 -58.5t-57.5 -228.5 v-86zM399 1423q0 12 15 31q12 18 39 6q145 -63 329 -84q52 -6 27 -82q-13 -40 -30.5 -52t-45.5 -3q-180 54 -317 154q-17 15 -17 30z" />
<glyph unicode="&#xe9;" horiz-adv-x="1124" d="M133 412v219q0 105 21 180t56.5 120t94 70.5t120.5 34t150 8.5q110 0 181 -12.5t124.5 -46.5t77 -95.5t23.5 -158.5q0 -57 -7.5 -99t-21 -74.5t-40 -53.5t-57.5 -35.5t-80 -21.5t-101 -10t-127 -3h-246v-24q0 -56 4 -94.5t15 -75t32 -59t55 -40t83 -25t116 -7.5 q140 0 336 36q29 5 37 1.5t8 -23.5v-70q0 -20 -7 -26.5t-32 -12.5q-180 -34 -366 -34q-133 0 -220.5 25t-138 80.5t-70.5 133t-20 193.5zM301 553h242q63 0 103 2t73.5 9.5t50.5 18.5t28.5 32t15 46.5t3.5 65.5q0 112 -51 155.5t-191 43.5q-159 0 -216.5 -58.5t-57.5 -228.5 v-86zM381.5 1337.5q5.5 17.5 30.5 24.5q155 39 290 92q28 8 35 -4l17 -35q6 -16 -15 -31q-132 -90 -290 -145q-37 -15 -62 47q-11 34 -5.5 51.5z" />
<glyph unicode="&#xea;" horiz-adv-x="1124" d="M133 412v219q0 105 21 180t56.5 120t94 70.5t120.5 34t150 8.5q110 0 181 -12.5t124.5 -46.5t77 -95.5t23.5 -158.5q0 -57 -7.5 -99t-21 -74.5t-40 -53.5t-57.5 -35.5t-80 -21.5t-101 -10t-127 -3h-246v-24q0 -56 4 -94.5t15 -75t32 -59t55 -40t83 -25t116 -7.5 q140 0 336 36q29 5 37 1.5t8 -23.5v-70q0 -20 -7 -26.5t-32 -12.5q-180 -34 -366 -34q-133 0 -220.5 25t-138 80.5t-70.5 133t-20 193.5zM301 553h242q63 0 103 2t73.5 9.5t50.5 18.5t28.5 32t15 46.5t3.5 65.5q0 112 -51 155.5t-191 43.5q-159 0 -216.5 -58.5t-57.5 -228.5 v-86zM318.5 1279.5q-1.5 6.5 3.5 13.5t20 16l211 127q20 8 29 8q8 0 28 -8l211 -127q20 -13 23 -22.5t-8 -24.5q-15 -17 -27.5 -19t-38.5 8l-188 64l-191 -64q-25 -11 -37.5 -8.5t-25.5 19.5q-8 11 -9.5 17.5z" />
<glyph unicode="&#xeb;" horiz-adv-x="1124" d="M133 412v219q0 105 21 180t56.5 120t94 70.5t120.5 34t150 8.5q110 0 181 -12.5t124.5 -46.5t77 -95.5t23.5 -158.5q0 -57 -7.5 -99t-21 -74.5t-40 -53.5t-57.5 -35.5t-80 -21.5t-101 -10t-127 -3h-246v-24q0 -56 4 -94.5t15 -75t32 -59t55 -40t83 -25t116 -7.5 q140 0 336 36q29 5 37 1.5t8 -23.5v-70q0 -20 -7 -26.5t-32 -12.5q-180 -34 -366 -34q-133 0 -220.5 25t-138 80.5t-70.5 133t-20 193.5zM301 553h242q63 0 103 2t73.5 9.5t50.5 18.5t28.5 32t15 46.5t3.5 65.5q0 112 -51 155.5t-191 43.5q-159 0 -216.5 -58.5t-57.5 -228.5 v-86zM338 1286v66q0 18 9 29.5t26.5 15.5t29.5 5t33 1q35 0 47.5 -16t12.5 -46v-65q0 -17 -7 -27t-23.5 -14t-29.5 -5t-39 -1q-36 0 -47.5 14t-11.5 43zM666 1286v66q0 24 18 36t34.5 13.5t45.5 1.5q36 0 47.5 -15.5t11.5 -46.5v-65q0 -17 -7 -27t-23 -14t-28.5 -5t-37.5 -1 q-37 0 -49 14t-12 43z" />
<glyph unicode="&#xec;" horiz-adv-x="581" d="M82 924v49q0 14 6 19.5t23 8.5l100 17q74 12 98 12q60 0 60 -61v-791q0 -42 14 -57t47 -15q12 0 43 5q27 7 27 -19v-74q0 -18 -23 -24q-38 -10 -102 -10q-99 0 -135.5 47t-36.5 135v674q0 27 -10.5 37.5t-36.5 13.5l-50 8q-14 2 -19 6.5t-5 18.5zM111 1423q0 13 14 31 q12 18 39 6q144 -63 330 -84q51 -6 26 -82q-13 -40 -30.5 -52t-45.5 -3q-180 54 -317 154q-16 14 -16 30z" />
<glyph unicode="&#xed;" horiz-adv-x="581" d="M82 924v49q0 14 6 19.5t23 8.5l100 17q74 12 98 12q60 0 60 -61v-791q0 -42 14 -57t47 -15q12 0 43 5q27 7 27 -19v-74q0 -18 -23 -24q-38 -10 -102 -10q-99 0 -135.5 47t-36.5 135v674q0 27 -10.5 37.5t-36.5 13.5l-50 8q-14 2 -19 6.5t-5 18.5zM92.5 1337.5 q5.5 17.5 30.5 24.5q158 39 291 92q28 8 35 -4l16 -35q7 -16 -14 -31q-131 -89 -291 -145q-37 -15 -62 47q-11 34 -5.5 51.5z" />
<glyph unicode="&#xee;" horiz-adv-x="581" d="M29.5 1279.5q-1.5 6.5 3.5 13.5t20 16l211 127q20 8 29 8t29 -8l210 -127q20 -13 23 -22.5t-8 -24.5q-15 -17 -27.5 -19t-38.5 8l-188 64l-191 -64q-25 -11 -37.5 -8.5t-25.5 19.5q-8 11 -9.5 17.5zM82 924v49q0 14 6 19.5t23 8.5l100 17q74 12 98 12q60 0 60 -61v-791 q0 -42 14 -57t47 -15q12 0 43 5q27 7 27 -19v-74q0 -18 -23 -24q-38 -10 -102 -10q-99 0 -135.5 47t-36.5 135v674q0 27 -10.5 37.5t-36.5 13.5l-50 8q-14 2 -19 6.5t-5 18.5z" />
<glyph unicode="&#xef;" horiz-adv-x="581" d="M49 1286v66q0 18 9 29.5t26.5 15.5t29.5 5t33 1q35 0 47.5 -16t12.5 -46v-65q0 -17 -7 -27t-23.5 -14t-29 -5t-38.5 -1q-36 0 -48 14t-12 43zM82 924v49q0 14 6 19.5t23 8.5l100 17q74 12 98 12q60 0 60 -61v-791q0 -42 14 -57t47 -15q12 0 43 5q27 7 27 -19v-74 q0 -18 -23 -24q-38 -10 -102 -10q-99 0 -135.5 47t-36.5 135v674q0 27 -10.5 37.5t-36.5 13.5l-50 8q-14 2 -19 6.5t-5 18.5zM377 1286v66q0 24 18 36t34.5 13.5t45.5 1.5q36 0 48 -15.5t12 -46.5v-65q0 -17 -7 -27t-23.5 -14t-29 -5t-37.5 -1q-37 0 -49 14t-12 43z" />
<glyph unicode="&#xf0;" horiz-adv-x="1196" d="M133 377v270q0 210 81 303.5t282 93.5q168 0 313 -49q-2 68 -20 114.5t-78 117.5l-47 59l-91 -69q-6 -6 -16 -5.5t-16 7.5l-39 49q-15 23 0 35l90 71l-49 62q-25 31 16 57l43 29q1 0 9 5.5t12.5 7t12.5 3.5t14.5 -1t13.5 -11l53 -70l80 66q3 2 5.5 3.5t5 1t4 -0.5t4 -2 t3.5 -2.5t4 -4t4 -4.5l43 -51q9 -18 -10 -35l-72 -59l50 -63q81 -100 108 -171t29 -182v-774q0 -42 15 -57t48 -15q12 0 41 5q27 6 27 -19v-74q0 -18 -23 -24q-33 -10 -100 -10q-108 0 -147 61q-149 -65 -340 -65q-201 0 -282 93.5t-81 303.5zM303 375q0 -155 57.5 -213 t188.5 -58q110 0 260 52v716q-160 50 -260 50q-131 0 -188.5 -57.5t-57.5 -215.5v-274z" />
<glyph unicode="&#xf1;" horiz-adv-x="1241" d="M98 924v49q0 14 6 19.5t23 8.5l102 17q74 12 97 12q59 0 59 -61v-29q181 104 373 104q47 0 84 -6.5t74 -26t61.5 -51t39.5 -85.5t15 -127v-570q0 -42 14.5 -57t47.5 -15q14 0 43 5q26 6 26 -19v-74q0 -18 -22 -24q-38 -10 -103 -10q-99 0 -135.5 47t-36.5 135v563 q0 99 -42.5 139.5t-121.5 40.5q-144 0 -317 -94v-651q0 -28 10 -36.5t51 -14.5l39 -7q19 -3 19 -24v-59q0 -23 -21 -23h-360q-23 0 -23 23v59q0 21 21 24l37 7q40 6 50.5 15t10.5 36v676q0 27 -10 37.5t-35 13.5l-51 8q-14 2 -19.5 6.5t-5.5 18.5zM391 1296q-20 14 6 47 q60 82 133 82q42 0 106 -33.5t97 -33.5q36 0 68 37q19 24 39 8l34 -43q20 -15 0 -41q-63 -88 -147 -88q-37 0 -98 33.5t-97 33.5q-40 0 -75 -43q-16 -16 -35 -2z" />
<glyph unicode="&#xf2;" horiz-adv-x="1169" d="M133 344v336q0 189 110 276.5t343 87.5q231 0 340.5 -86.5t109.5 -277.5v-336q0 -192 -108.5 -278t-343.5 -86q-236 0 -343.5 86.5t-107.5 277.5zM303 344q0 -129 67.5 -181t213.5 -52q147 0 215.5 52t68.5 181v336q0 125 -66.5 179t-215.5 54q-150 0 -216.5 -54.5 t-66.5 -178.5v-336zM410 1423q0 13 14 31q12 18 39 6q144 -63 330 -84q51 -6 26 -82q-13 -40 -30.5 -52t-45.5 -3q-180 54 -317 154q-16 14 -16 30z" />
<glyph unicode="&#xf3;" horiz-adv-x="1169" d="M133 344v336q0 189 110 276.5t343 87.5q231 0 340.5 -86.5t109.5 -277.5v-336q0 -192 -108.5 -278t-343.5 -86q-236 0 -343.5 86.5t-107.5 277.5zM303 344q0 -129 67.5 -181t213.5 -52q147 0 215.5 52t68.5 181v336q0 125 -66.5 179t-215.5 54q-150 0 -216.5 -54.5 t-66.5 -178.5v-336zM391.5 1337.5q5.5 17.5 30.5 24.5q158 39 291 92q28 8 35 -4l16 -35q7 -16 -14 -31q-131 -89 -291 -145q-37 -15 -62 47q-11 34 -5.5 51.5z" />
<glyph unicode="&#xf4;" horiz-adv-x="1169" d="M133 344v336q0 189 110 276.5t343 87.5q231 0 340.5 -86.5t109.5 -277.5v-336q0 -192 -108.5 -278t-343.5 -86q-236 0 -343.5 86.5t-107.5 277.5zM303 344q0 -129 67.5 -181t213.5 -52q147 0 215.5 52t68.5 181v336q0 125 -66.5 179t-215.5 54q-150 0 -216.5 -54.5 t-66.5 -178.5v-336zM328.5 1279.5q-1.5 6.5 3.5 13.5t20 16l211 127q20 8 29 8t29 -8l210 -127q20 -13 23 -22.5t-8 -24.5q-15 -17 -27.5 -19t-38.5 8l-188 64l-191 -64q-25 -11 -37.5 -8.5t-25.5 19.5q-8 11 -9.5 17.5z" />
<glyph unicode="&#xf5;" horiz-adv-x="1169" d="M133 344v336q0 189 110 276.5t343 87.5q231 0 340.5 -86.5t109.5 -277.5v-336q0 -192 -108.5 -278t-343.5 -86q-236 0 -343.5 86.5t-107.5 277.5zM303 344q0 -129 67.5 -181t213.5 -52q147 0 215.5 52t68.5 181v336q0 125 -66.5 179t-215.5 54q-150 0 -216.5 -54.5 t-66.5 -178.5v-336zM348 1296q-20 14 6 47q60 82 133 82q43 0 106 -33.5t97 -33.5q36 0 68 37q19 24 39 8l34 -43q21 -15 0 -41q-63 -88 -147 -88q-37 0 -98 33.5t-97 33.5q-40 0 -75 -43q-16 -16 -35 -2z" />
<glyph unicode="&#xf6;" horiz-adv-x="1169" d="M133 344v336q0 189 110 276.5t343 87.5q231 0 340.5 -86.5t109.5 -277.5v-336q0 -192 -108.5 -278t-343.5 -86q-236 0 -343.5 86.5t-107.5 277.5zM303 344q0 -129 67.5 -181t213.5 -52q147 0 215.5 52t68.5 181v336q0 125 -66.5 179t-215.5 54q-150 0 -216.5 -54.5 t-66.5 -178.5v-336zM348 1286v66q0 18 9 29.5t26.5 15.5t29.5 5t33 1q35 0 47.5 -16t12.5 -46v-65q0 -17 -7 -27t-23.5 -14t-29 -5t-38.5 -1q-36 0 -48 14t-12 43zM676 1286v66q0 24 18 36t34.5 13.5t45.5 1.5q36 0 48 -15.5t12 -46.5v-65q0 -17 -7 -27t-23.5 -14t-29 -5 t-37.5 -1q-37 0 -49 14t-12 43z" />
<glyph unicode="&#xf7;" horiz-adv-x="882" d="M27 461q0 -14 8.5 -22.5t21.5 -8.5h777q13 0 21.5 8.5t8.5 22.5v88q0 14 -8.5 22.5t-21.5 8.5h-777q-13 0 -21.5 -8.5t-8.5 -22.5v-88zM365 47v68q0 55 86 55q88 0 88 -55v-68q0 -34 -18.5 -48t-69.5 -15q-47 2 -66.5 15.5t-19.5 47.5zM365 922v67q0 55 86 55 q88 0 88 -55v-67q0 -34 -19 -48.5t-69 -15.5q-47 2 -66.5 16t-19.5 48z" />
<glyph unicode="&#xf8;" horiz-adv-x="1169" d="M133 344v336q0 189 110 276.5t343 87.5q76 0 125 -8l45 105q7 18 16 24t27 6h71q39 0 19 -49l-49 -116q196 -76 196 -326v-336q0 -192 -108.5 -278t-343.5 -86q-83 0 -172 14l-37 -90q-9 -18 -17.5 -23.5t-27.5 -5.5h-70q-21 0 -25.5 10.5t7.5 36.5l47 111 q-156 84 -156 311zM303 344q0 -108 47 -164l307 729q-46 4 -71 4q-150 0 -216.5 -54.5t-66.5 -178.5v-336zM465 121q44 -10 119 -10q147 0 215.5 52t68.5 181v336q0 138 -86 192z" />
<glyph unicode="&#xf9;" horiz-adv-x="1228" d="M82 918v49q0 15 6 21t23 9l100 15q74 12 98 12q60 0 60 -59v-703q0 -86 42 -119.5t140 -33.5q76 0 143 16.5t156 50.5v660q0 27 -10 37.5t-35 13.5l-51 6q-25 3 -25 25v49q0 15 6 21t23 9l100 15q74 12 98 12q60 0 60 -59v-787q0 -42 14.5 -57t48.5 -15q12 0 41 5 q27 6 27 -19v-74q0 -18 -23 -24q-33 -10 -102 -10q-120 0 -156 77q-166 -81 -379 -81q-148 0 -216 60t-68 208v588q0 27 -10.5 37.5t-36.5 13.5l-50 6q-14 2 -19 7t-5 18zM412 1421q0 13 14 31q12 18 39 6q144 -63 330 -84q51 -6 26 -82q-13 -40 -30.5 -52t-45.5 -3 q-180 54 -317 154q-16 14 -16 30z" />
<glyph unicode="&#xfa;" horiz-adv-x="1228" d="M82 918v49q0 15 6 21t23 9l100 15q74 12 98 12q60 0 60 -59v-703q0 -86 42 -119.5t140 -33.5q76 0 143 16.5t156 50.5v660q0 27 -10 37.5t-35 13.5l-51 6q-25 3 -25 25v49q0 15 6 21t23 9l100 15q74 12 98 12q60 0 60 -59v-787q0 -42 14.5 -57t48.5 -15q12 0 41 5 q27 6 27 -19v-74q0 -18 -23 -24q-33 -10 -102 -10q-120 0 -156 77q-166 -81 -379 -81q-148 0 -216 60t-68 208v588q0 27 -10.5 37.5t-36.5 13.5l-50 6q-14 2 -19 7t-5 18zM393.5 1335.5q5.5 17.5 30.5 24.5q158 39 291 92q28 8 35 -4l16 -35q7 -16 -14 -31 q-131 -89 -291 -145q-37 -15 -62 47q-11 34 -5.5 51.5z" />
<glyph unicode="&#xfb;" horiz-adv-x="1228" d="M82 918v49q0 15 6 21t23 9l100 15q74 12 98 12q60 0 60 -59v-703q0 -86 42 -119.5t140 -33.5q76 0 143 16.5t156 50.5v660q0 27 -10 37.5t-35 13.5l-51 6q-25 3 -25 25v49q0 15 6 21t23 9l100 15q74 12 98 12q60 0 60 -59v-787q0 -42 14.5 -57t48.5 -15q12 0 41 5 q27 6 27 -19v-74q0 -18 -23 -24q-33 -10 -102 -10q-120 0 -156 77q-166 -81 -379 -81q-148 0 -216 60t-68 208v588q0 27 -10.5 37.5t-36.5 13.5l-50 6q-14 2 -19 7t-5 18zM330.5 1277.5q-1.5 6.5 3.5 13.5t20 16l211 127q20 8 29 8t29 -8l211 -127q20 -13 22.5 -22.5 t-8.5 -24.5q-15 -17 -27.5 -19t-38.5 8l-188 64l-191 -64q-25 -11 -37.5 -8.5t-25.5 19.5q-8 11 -9.5 17.5z" />
<glyph unicode="&#xfc;" horiz-adv-x="1228" d="M82 918v49q0 15 6 21t23 9l100 15q74 12 98 12q60 0 60 -59v-703q0 -86 42 -119.5t140 -33.5q76 0 143 16.5t156 50.5v660q0 27 -10 37.5t-35 13.5l-51 6q-25 3 -25 25v49q0 15 6 21t23 9l100 15q74 12 98 12q60 0 60 -59v-787q0 -42 14.5 -57t48.5 -15q12 0 41 5 q27 6 27 -19v-74q0 -18 -23 -24q-33 -10 -102 -10q-120 0 -156 77q-166 -81 -379 -81q-148 0 -216 60t-68 208v588q0 27 -10.5 37.5t-36.5 13.5l-50 6q-14 2 -19 7t-5 18zM350 1284v66q0 18 9 29.5t27 15.5t30 5t33 1q35 0 47 -16t12 -46v-65q0 -17 -7 -27t-23.5 -14t-29 -5 t-38.5 -1q-36 0 -48 14t-12 43zM678 1284v66q0 24 18 36t34.5 13.5t45.5 1.5q36 0 48 -15.5t12 -46.5v-65q0 -17 -7 -27t-23.5 -14t-29 -5t-37.5 -1q-37 0 -49 14t-12 43z" />
<glyph unicode="&#xfd;" horiz-adv-x="1144" d="M43 940v64q0 20 20 20h349q11 0 16 -4.5t5.5 -8.5t0.5 -14v-55q0 -21 -18 -24l-37 -7q-38 -4 -44 -12.5t5 -36.5l254 -712l258 712q13 29 -2 38.5t-62 14.5l-16 3q-14 3 -14 18v61q0 10 0.5 14t5.5 8.5t16 4.5h305q21 0 21 -20v-64q0 -22 -19 -25l-67 -14 q-14 -3 -22.5 -18.5t-22.5 -55.5l-305 -843q-46 -128 -82 -203t-83 -127t-102.5 -71t-136.5 -19q-91 0 -129 10q-24 5 -24 27v57q0 23 18 23q77 -11 123 -11q98 0 155 63.5t121 237.5l11 29h-21q-25 0 -35.5 8t-21.5 43l-289 780q-17 49 -28 60.5t-42 17.5l-43 6 q-18 3 -18 25zM402.5 1337.5q5.5 17.5 29.5 24.5q158 39 291 92q28 8 35 -4l16 -35q7 -16 -14 -31q-131 -89 -291 -145q-36 -15 -61 47q-11 34 -5.5 51.5z" />
<glyph unicode="&#xfe;" horiz-adv-x="1173" d="M88 1378v49q0 15 6 21.5t23 9.5l102 15q74 12 96 12q60 0 60 -60v-450q134 69 334 69q182 0 257.5 -90t75.5 -290v-304q0 -200 -78 -290t-270 -90q-172 0 -319 65v-291q0 -25 12 -35t49 -16l80 -8q19 -3 19 -25v-63q0 -23 -21 -23h-401q-23 0 -23 23v59q0 22 21 25l36 6 q39 6 50.5 16t11.5 35v1548q0 27 -10 38t-35 14l-51 6q-13 2 -19 6.5t-6 17.5zM375 168q49 -26 122.5 -45t141.5 -19q63 0 104 10.5t71.5 38.5t44 78t13.5 127v308q0 145 -51 199.5t-162 54.5q-72 0 -150.5 -22.5t-133.5 -51.5v-678z" />
<glyph unicode="&#xff;" horiz-adv-x="1144" d="M43 940v64q0 20 20 20h349q11 0 16 -4.5t5.5 -8.5t0.5 -14v-55q0 -21 -18 -24l-37 -7q-38 -4 -44 -12.5t5 -36.5l254 -712l258 712q13 29 -2 38.5t-62 14.5l-16 3q-14 3 -14 18v61q0 10 0.5 14t5.5 8.5t16 4.5h305q21 0 21 -20v-64q0 -22 -19 -25l-67 -14 q-14 -3 -22.5 -18.5t-22.5 -55.5l-305 -843q-46 -128 -82 -203t-83 -127t-102.5 -71t-136.5 -19q-91 0 -129 10q-24 5 -24 27v57q0 23 18 23q77 -11 123 -11q98 0 155 63.5t121 237.5l11 29h-21q-25 0 -35.5 8t-21.5 43l-289 780q-17 49 -28 60.5t-42 17.5l-43 6 q-18 3 -18 25zM358 1286v66q0 18 9 29.5t27 15.5t30 5t33 1q35 0 47 -16t12 -46v-65q0 -17 -7 -27t-23.5 -14t-29 -5t-38.5 -1q-36 0 -48 14t-12 43zM686 1286v66q0 24 18 36t34.5 13.5t45.5 1.5q36 0 48 -15.5t12 -46.5v-65q0 -17 -7 -27t-23 -14t-28.5 -5t-37.5 -1 q-37 0 -49.5 14t-12.5 43z" />
<glyph unicode="&#x152;" horiz-adv-x="2201" d="M170 561v359q0 57 2 99.5t9.5 94t20 89t35 79t53.5 70.5t76 56.5t102.5 44t133.5 26.5t168 10q98 0 201 -14h1071q11 0 16 -5.5t5.5 -10.5t0.5 -15l-16 -301q-1 -18 -9 -23.5t-24 -5.5h-55q-12 0 -21 8t-10 21l-18 168q-1 22 -10 28.5t-35 8.5l-621 10q78 -72 103.5 -178 t25.5 -260v-109h473q20 0 27.5 -7.5t7.5 -27.5v-61q0 -20 -8.5 -27.5t-32.5 -7.5h-467v-119q0 -157 -24.5 -264t-100.5 -182l637 12q18 0 26 6t15 21l43 202q10 29 31 29h67q14 0 20.5 -6t6.5 -23l-20 -325q0 -9 -1 -14t-6 -10.5t-16 -6.5h-1057q-95 -18 -225 -18 q-92 0 -168 10t-133.5 26.5t-102.5 44.5t-76 57t-53.5 71t-35 80.5t-20 90.5t-9.5 96t-2 103zM346 559q0 -90 7.5 -150t32.5 -120t70 -94.5t123.5 -56t190.5 -21.5q82 0 145.5 11t108.5 30t77 50.5t50.5 65t29 82.5t14 94.5t3.5 108.5v363q0 61 -3 104.5t-13.5 91.5t-29 81 t-50.5 64.5t-77 50t-109 29.5t-146 11q-81 0 -144 -11t-107.5 -29.5t-76 -50t-50 -64.5t-29 -80.5t-14 -92t-3.5 -104.5v-363z" />
<glyph unicode="&#x153;" horiz-adv-x="1865" d="M133 344v336q0 189 110 276.5t343 87.5q263 0 366 -112q53 64 141.5 88t221.5 24q110 0 181 -12.5t124 -46.5t76.5 -95.5t23.5 -158.5q0 -57 -7.5 -99t-21 -74.5t-40 -53.5t-57.5 -35.5t-80 -21.5t-101 -10t-127 -3h-246v-24q0 -56 4 -94.5t15.5 -75t32.5 -59t55 -40 t83 -25t116 -7.5q139 0 335 36q29 5 37 1.5t8 -23.5v-70q0 -20 -6.5 -26.5t-31.5 -12.5q-180 -34 -367 -34q-140 0 -228 27t-139 85q-103 -112 -370 -112q-236 0 -343.5 86.5t-107.5 277.5zM303 344q0 -129 67.5 -181t213.5 -52q147 0 215.5 52t68.5 181v336 q0 125 -66.5 179t-215.5 54q-150 0 -216.5 -54.5t-66.5 -178.5v-336zM1040 553h242q63 0 103 2t73.5 9.5t50.5 18.5t28.5 32t15 46.5t3.5 65.5q0 112 -50.5 155.5t-190.5 43.5q-159 0 -217 -58.5t-58 -228.5v-86z" />
<glyph unicode="&#x178;" horiz-adv-x="1349" d="M55 1389v63q0 23 23 23h391q18 0 18 -23v-61q0 -20 -18 -23l-63 -6q-44 -6 -19 -55l311 -590l328 581q19 32 15.5 46.5t-33.5 17.5l-45 4q-12 2 -16.5 7t-4.5 18v63q0 21 21 21h331q21 0 21 -21v-72q0 -9 -7 -14.5t-16 -5.5l-49 -6q-24 -3 -36.5 -14.5t-28.5 -41.5 l-412 -712v-393q0 -42 10 -57.5t47 -18.5l80 -8q14 -2 19.5 -7t5.5 -18v-66q0 -20 -23 -20h-450q-21 0 -21 18v72q0 18 21 21l86 8q36 3 46.5 17.5t10.5 58.5v380l-393 717q-22 39 -36 49.5t-50 16.5l-45 6q-19 3 -19 25zM461 1606v65q0 18 9 29.5t26.5 15.5t29.5 5t33 1 q35 0 47 -15.5t12 -45.5v-66q0 -17 -7 -27t-23.5 -14t-29 -5t-38.5 -1q-35 0 -47 14t-12 44zM788 1606v65q0 15 7 25t15.5 15t24.5 7.5t25.5 3t26.5 0.5q36 0 47.5 -15t11.5 -46v-66q0 -17 -7 -27t-23 -14t-28.5 -5t-37.5 -1q-37 0 -49.5 14.5t-12.5 43.5z" />
<glyph unicode="&#x2c6;" horiz-adv-x="811" d="M142.5 1596.5q-1.5 6.5 3.5 13.5t20 16l211 127q20 8 29 8q8 0 28 -8l211 -127q20 -13 22.5 -22.5t-8.5 -24.5q-15 -17 -27 -19t-38 9l-188 63l-191 -63q-25 -11 -37.5 -9t-25.5 19q-8 11 -9.5 17.5z" />
<glyph unicode="&#x2dc;" horiz-adv-x="782" d="M180 1620q-20 14 6 47q60 82 133 82q43 0 106 -34t97 -34q36 0 68 37q19 24 39 8l35 -43q20 -15 0 -41q-63 -88 -148 -88q-37 0 -97.5 34t-96.5 34q-41 0 -76 -43q-16 -16 -35 -2z" />
<glyph unicode="&#x2000;" horiz-adv-x="950" />
<glyph unicode="&#x2001;" horiz-adv-x="1901" />
<glyph unicode="&#x2002;" horiz-adv-x="950" />
<glyph unicode="&#x2003;" horiz-adv-x="1901" />
<glyph unicode="&#x2004;" horiz-adv-x="633" />
<glyph unicode="&#x2005;" horiz-adv-x="475" />
<glyph unicode="&#x2006;" horiz-adv-x="316" />
<glyph unicode="&#x2007;" horiz-adv-x="316" />
<glyph unicode="&#x2008;" horiz-adv-x="237" />
<glyph unicode="&#x2009;" horiz-adv-x="380" />
<glyph unicode="&#x200a;" horiz-adv-x="105" />
<glyph unicode="&#x2010;" horiz-adv-x="618" d="M117 561v84q0 15 6.5 20t21.5 5h365q31 0 31 -23v-84q0 -14 -7.5 -19t-23.5 -5h-365q-16 0 -22 4.5t-6 17.5z" />
<glyph unicode="&#x2011;" horiz-adv-x="618" d="M117 561v84q0 15 6.5 20t21.5 5h365q31 0 31 -23v-84q0 -14 -7.5 -19t-23.5 -5h-365q-16 0 -22 4.5t-6 17.5z" />
<glyph unicode="&#x2012;" horiz-adv-x="618" d="M117 561v84q0 15 6.5 20t21.5 5h365q31 0 31 -23v-84q0 -14 -7.5 -19t-23.5 -5h-365q-16 0 -22 4.5t-6 17.5z" />
<glyph unicode="&#x2013;" horiz-adv-x="1300" d="M55 561v84q0 14 6.5 19.5t22.5 5.5h1147q31 0 31 -23v-84q0 -14 -7.5 -19t-23.5 -5h-1147q-16 0 -22.5 4.5t-6.5 17.5z" />
<glyph unicode="&#x2014;" horiz-adv-x="1941" d="M55 561v84q0 14 6.5 19.5t22.5 5.5h1735q30 0 30 -23v-84q0 -14 -7 -19t-23 -5h-1735q-16 0 -22.5 4.5t-6.5 17.5z" />
<glyph unicode="&#x2018;" horiz-adv-x="290" d="M41 1245v51q0 51 29.5 98t81.5 79q22 14 45 14h32q28 0 11 -33q-37 -70 -37 -137v-70q0 -32 -17.5 -44.5t-60.5 -12.5q-42 0 -63 12t-21 43z" />
<glyph unicode="&#x2019;" horiz-adv-x="290" d="M51 1223q37 70 37 137v70q0 32 17.5 44.5t60.5 12.5q42 0 63 -12t21 -43v-52q0 -51 -29 -97.5t-82 -78.5q-22 -14 -45 -14h-33q-27 0 -10 33z" />
<glyph unicode="&#x201a;" horiz-adv-x="290" d="M51 -92q37 70 37 137v70q0 32 17.5 44.5t60.5 12.5q42 0 63 -12t21 -43v-51q0 -51 -29.5 -98t-81.5 -79q-22 -14 -45 -14h-33q-27 0 -10 33z" />
<glyph unicode="&#x201c;" horiz-adv-x="579" d="M41 1245v51q0 51 29.5 98t81.5 79q22 14 45 14h32q28 0 11 -33q-37 -70 -37 -137v-70q0 -32 -17.5 -44.5t-60.5 -12.5q-42 0 -63 12t-21 43zM332 1245v51q0 51 29 98t81 79q22 14 45 14h33q27 0 10 -33q-36 -68 -36 -137v-70q0 -32 -17.5 -44.5t-60.5 -12.5q-42 0 -63 12 t-21 43z" />
<glyph unicode="&#x201d;" horiz-adv-x="579" d="M51 1225q37 70 37 137v70q0 32 17.5 44.5t60.5 12.5q42 0 63 -12t21 -43v-52q0 -51 -29 -97.5t-82 -78.5q-22 -14 -45 -14h-33q-27 0 -10 33zM340 1225q37 70 37 137v70q0 32 17.5 44.5t60.5 12.5q42 0 63 -12t21 -43v-52q0 -51 -29 -97.5t-82 -78.5q-22 -14 -45 -14h-33 q-27 0 -10 33z" />
<glyph unicode="&#x201e;" horiz-adv-x="608" d="M51 -92q37 70 37 137v70q0 32 17.5 44.5t60.5 12.5q42 0 63 -12t21 -43v-51q0 -51 -29.5 -98t-81.5 -79q-22 -14 -45 -14h-33q-27 0 -10 33zM369 -92q37 70 37 137v70q0 32 17 44.5t60 12.5q42 0 63 -12t21 -43v-51q0 -51 -29 -98t-81 -79q-22 -14 -45 -14h-33 q-27 0 -10 33z" />
<glyph unicode="&#x2022;" horiz-adv-x="595" d="M80 457v176q0 45 19 75t53.5 44.5t70.5 20t82 5.5q48 0 85 -5.5t72.5 -20t55 -44.5t19.5 -75v-176q0 -90 -50 -127t-182 -41q-125 5 -175 42t-50 126z" />
<glyph unicode="&#x2026;" horiz-adv-x="1034" d="M84 47v68q0 55 86 55q88 0 88 -55v-68q0 -34 -18.5 -48t-69.5 -15q-47 2 -66.5 15.5t-19.5 47.5zM430 47v68q0 55 86 55t86 -55v-68q0 -34 -18.5 -48t-67.5 -15q-49 1 -67.5 15t-18.5 48zM774 47v68q0 55 86 55q88 0 88 -55v-68q0 -34 -19.5 -48t-68.5 -15 q-49 1 -67.5 15t-18.5 48z" />
<glyph unicode="&#x202f;" horiz-adv-x="380" />
<glyph unicode="&#x2039;" horiz-adv-x="540" d="M90.5 559q-0.5 12 13.5 35l175 289q11 19 22 24.5t33 5.5h92q19 0 24 -12.5t-4 -23.5l-186 -318l189 -315q8 -12 1 -24.5t-22 -12.5h-98q-36 0 -56 37l-168 278q-15 25 -15.5 37z" />
<glyph unicode="&#x203a;" horiz-adv-x="540" d="M92.5 900.5q5.5 12.5 24.5 12.5h92q22 0 33 -5.5t22 -24.5l174 -289q14 -23 13.5 -35t-15.5 -37l-168 -278q-22 -37 -55 -37h-98q-15 0 -22 12.5t1 24.5l187 315l-185 318q-9 11 -3.5 23.5z" />
<glyph unicode="&#x205f;" horiz-adv-x="475" />
<glyph unicode="&#x20ac;" horiz-adv-x="1341" d="M12 502v55q0 22 8 27.5t33 5.5h123v149h-123q-41 0 -41 33v53q0 20 8.5 26.5t32.5 6.5h123v111q0 243 143 380.5t422 137.5q301 0 435 -43q16 -5 16 -23l-16 -282q-1 -18 -10 -23.5t-25 -5.5h-56q-29 0 -32 29l-23 196q-121 23 -289 23q-85 0 -152 -21.5t-110.5 -58 t-72 -87t-40.5 -104.5t-12 -114v-115h527q20 0 27 -7t7 -26v-53q0 -20 -8 -26.5t-33 -6.5h-520l2 -149h416q21 0 28 -6.5t7 -26.5v-55q0 -19 -8.5 -26t-32.5 -7h-408q14 -179 113.5 -265.5t325.5 -86.5q160 0 393 37q21 3 29 -3t8 -28v-57q0 -25 -7 -35.5t-34 -16.5 q-170 -34 -400 -34q-169 0 -285.5 31.5t-185 97t-100 152t-37.5 208.5h-125q-41 0 -41 33z" />
<glyph unicode="&#x2122;" horiz-adv-x="1236" d="M72 1460q0 10 8 10h137q12 0 12 -10v-39q0 -12 -12 -12l-65 -6q-5 0 -9 -8l-10 -58q-3 -10 -10 -10h-35q-4 0 -5.5 0.5t-3 2.5t-1.5 7zM215 993v35q0 5 6 8l17 2q16 2 16 17v409q0 6 6 6h82q2 0 4 -2t2 -4v-409q0 -14 14 -17l19 -2q6 -3 6 -8v-35q0 -6 -8 -6h-156 q-8 0 -8 6zM371 1421v39q0 10 14 10h137q6 0 6 -10l-4 -123q-1 -7 -3 -8.5t-7 -1.5h-35q-7 0 -10 10l-12 58q0 8 -8 8l-64 6q-14 0 -14 12zM592 993v35q0 5 6 8l12 2q17 2 17 17v309q0 5 2.5 7t6 0.5t5.5 -5.5l47 -96q6 -15 6 -35v-180q0 -15 17 -17l12 -2q6 -3 6 -8v-35 q0 -1 -2.5 -3.5t-3.5 -2.5h-123q-8 0 -8 6zM592 1430v34q0 6 8 6h107q3 0 6 -1t4.5 -2t3.5 -4t2.5 -4t2.5 -6.5t3 -6.5l133 -277l107 265q3 10 14 10q8 0 8 -10v-115q0 -15 -6 -27l-117 -295q-2 -10 -14 -10q-6 0 -8 2l-4 8l-197 412q-3 8 -14 8l-33 4q-6 3 -6 9zM981 993 v35q0 5 6 8l12 2q17 2 17 17v409q0 2 2 4t4 2h115q8 0 8 -6v-34q0 -6 -6 -9l-15 -2q-14 0 -14 -16v-348q0 -14 14 -17l15 -2q6 -3 6 -8v-35q0 -6 -8 -6h-150q-1 0 -3.5 2.5t-2.5 3.5z" />
<glyph unicode="&#x25fc;" horiz-adv-x="1024" d="M0 0v1024h1024v-1024h-1024z" />
<glyph unicode="&#xfb01;" horiz-adv-x="1255" d="M98 928v69q0 27 21 27h125v184q0 185 85 274t283 89q82 0 182 -7t142 -16q16 -5 19 -11t3 -19l-16 -222q0 -28 -31 -28h-53q-29 0 -29 28l-20 144q-57 8 -182 8q-119 0 -168 -63t-49 -173v-188h542q9 0 13 -2l16 2q61 0 61 -59v-787q0 -42 14.5 -57t47.5 -15q14 0 43 5 q27 6 27 -19v-74q0 -18 -23 -24q-38 -10 -102 -10q-98 0 -135 47t-37 135v680q0 28 -8.5 39t-32.5 14l-19 2h-407v-733q0 -26 11.5 -36t45.5 -13l92 -10q21 -3 21 -25v-61q0 -23 -23 -23h-410q-22 0 -22 23v61q0 22 20 25l37 6q39 6 50.5 16t11.5 37v733h-121q-25 0 -25 27z " />
<glyph unicode="&#xfb02;" horiz-adv-x="1263" d="M98 932v63q0 27 21 27h125v121q0 115 19.5 186t69.5 111.5t120.5 54.5t187.5 14q122 0 193.5 -13.5t121 -54.5t68 -111.5t18.5 -188.5v-963q0 -42 15.5 -57t48.5 -15q12 0 41 5q27 6 27 -19v-74q0 -18 -23 -24q-33 -10 -102 -10q-98 0 -135 47t-37 135v975 q0 76 -14 123.5t-45.5 73t-72 34t-104.5 8.5q-132 0 -181.5 -47.5t-49.5 -191.5v-119h200q13 0 17 -6t4 -21v-63q0 -27 -23 -27h-198v-741q0 -28 10 -36.5t51 -14.5l39 -7q10 -1 14 -6.5t4 -17.5v-59q0 -23 -20 -23h-361q-22 0 -22 23v59q0 21 20 24l37 7q41 6 51.5 15 t10.5 36v741h-121q-25 0 -25 27z" />
<glyph unicode="&#xfb03;" horiz-adv-x="1871" d="M98 928v69q0 27 21 27h125v82q0 184 98.5 273t325.5 89q160 0 297 -30q80 133 317 133q82 0 182 -7t144 -16q16 -5 19 -11t3 -19l-16 -222q0 -28 -31 -28h-55q-15 0 -21 6.5t-8 21.5l-20 144q-55 8 -183 8q-119 0 -167 -62.5t-48 -173.5v-188h570q61 0 61 -59v-787 q0 -42 15.5 -57t48.5 -15q12 0 41 5q26 6 26 -19v-74q0 -18 -22 -24q-33 -10 -103 -10q-98 0 -135 47t-37 135v680q0 55 -41 55h-424v-733q0 -26 11.5 -36t46.5 -13l92 -10q18 -3 18 -25v-61q0 -23 -22 -23h-410q-20 0 -20 23v61q0 22 18 25l39 6q38 6 49.5 16t11.5 37v733 h-505v-733q0 -26 11.5 -36t45.5 -13l92 -10q21 -3 21 -25v-61q0 -23 -23 -23h-410q-22 0 -22 23v61q0 22 20 25l37 6q39 6 50.5 16t11.5 37v733h-121q-25 0 -25 27zM410 1024h505v184q0 47 7 105q-50 15 -124.5 24t-119.5 9q-148 0 -208 -62.5t-60 -173.5v-86z" />
<glyph unicode="&#xfb04;" horiz-adv-x="1857" d="M98 928v69q0 27 21 27h125v82q0 190 96 276t332 86q157 0 284 -30q83 133 344 133q173 0 293 -19q119 -13 119 -69v-1305q0 -42 15.5 -57t48.5 -15q12 0 41 5q26 6 26 -19v-74q0 -18 -22 -24q-33 -10 -103 -10q-98 0 -135 47t-37 135v1206q0 27 -8.5 37.5t-32.5 15.5 q-85 11 -184 11q-142 0 -199 -58.5t-57 -165.5v-188h256q22 0 22 -27v-69q0 -27 -24 -27h-254v-733q0 -26 11.5 -36t45.5 -13l92 -10q19 -2 19 -25v-61q0 -23 -21 -23h-409q-23 0 -23 23v61q0 22 21 25l37 6q39 6 50 16t11 37v733h-489v-733q0 -26 11.5 -36t45.5 -13l92 -10 q21 -3 21 -25v-61q0 -23 -23 -23h-410q-22 0 -22 23v61q0 22 20 25l37 6q39 6 50.5 16t11.5 37v733h-121q-25 0 -25 27zM410 1024h489v133q0 97 10 156q-48 16 -119.5 24.5t-119.5 8.5q-260 0 -260 -236v-86z" />
</font>
</defs>
</svg>
